<svg id="Layer_1" data-name="Layer 1" xmlns="http://www.w3.org/2000/svg" viewBox="0 0 71.19 71.18"><defs><style>.cls-1{fill:#fff;}</style></defs><path class="cls-1" d="M28.55,31a6.71,6.71,0,0,1,1.88,3.52v3A6.74,6.74,0,0,1,28.55,41a6.69,6.69,0,0,1-9.66,0,6.85,6.85,0,0,1-2-5.05,6.94,6.94,0,0,1,2-5.09,6.65,6.65,0,0,1,9.66,0Z" transform="translate(-0.41 -0.41)"/><path class="cls-1" d="M35.36.41l-.91,0a5.78,5.78,0,0,0-5.54,5.87s0,.09,0,.14A12.77,12.77,0,0,1,11.15,18.27a5.76,5.76,0,0,0-7.5,2.85A35.6,35.6,0,1,0,35.36.41Zm-1.2,45.53H30.43V42.65a7.28,7.28,0,0,1-6.72,3.79,10.31,10.31,0,0,1-7.57-3.1,10.25,10.25,0,0,1,0-14.69,10.3,10.3,0,0,1,7.57-3.09,7.28,7.28,0,0,1,6.72,3.75v-2.2h3.73ZM38,27.11h2.33a6.73,6.73,0,0,1,3.79-1,6.91,6.91,0,0,1,4.35,1.32,6.71,6.71,0,0,1,4.3-1.32,6,6,0,0,1,4.45,1.81A5.72,5.72,0,0,1,59,31.83V45.94H55.23V31Q55,29.31,52.8,29.31a2.48,2.48,0,0,0-2.49,1.61v15H46.58V31h0c-.15-1.14-1-1.71-2.41-1.71a2.84,2.84,0,0,0-2.39,1.12V45.94H38ZM63,54A32.74,32.74,0,0,1,59,59a35.34,35.34,0,0,1-4.81,4.24,24.36,24.36,0,0,1-5.66,3,26.38,26.38,0,0,1-6.23,1.52A23.13,23.13,0,0,1,36,67.73v-.24a54.53,54.53,0,0,0,6-1.32,40.31,40.31,0,0,0,5.63-2.08,50.12,50.12,0,0,0,5.27-2.8,28.81,28.81,0,0,0,4.77-3.62,32.38,32.38,0,0,0,7-9.8A32.39,32.39,0,0,0,67.49,36h.24a31.24,31.24,0,0,1-2,12.33A32.26,32.26,0,0,1,63,54Z" transform="translate(-0.41 -0.41)"/></svg>