<?xml version="1.0" encoding="utf-8"?>
<!-- Generator: Adobe Illustrator 19.0.0, SVG Export Plug-In . SVG Version: 6.00 Build 0)  -->
<svg version="1.1" id="Layer_1" xmlns="http://www.w3.org/2000/svg" xmlns:xlink="http://www.w3.org/1999/xlink" x="0px" y="0px"
	 viewBox="0 0 512 512" style="enable-background:new 0 0 512 512;" xml:space="preserve">
<style type="text/css">
	.st0{opacity:0.7;fill:#F2E4EF;}
	.st1{fill:#1D1747;}
	.st2{opacity:0.7;}
	.st3{fill:#EED5E8;}
	.st4{fill:#F4EFE6;}
	.st5{fill:#2E296C;}
	.st6{fill:#C1E3E4;}
	.st7{fill:url(#XMLID_52_);stroke:url(#XMLID_57_);stroke-width:10;stroke-miterlimit:10;}
	.st8{fill:url(#XMLID_115_);stroke:url(#XMLID_120_);stroke-width:10;stroke-miterlimit:10;}
	.st9{fill:none;stroke:url(#XMLID_121_);stroke-width:10;stroke-linecap:round;stroke-miterlimit:10;}
	.st10{fill:none;stroke:#000000;stroke-width:10;stroke-linecap:round;stroke-miterlimit:10;}
</style>
<circle id="XMLID_7_" class="st0" cx="256" cy="256" r="256"/>
<path id="XMLID_13_" class="st1" d="M256,7C118.5,7,7,118.5,7,256s111.5,249,249,249s249-111.5,249-249S393.5,7,256,7z M256,460.4
	c-118.4,0-224.4-86-224.4-204.4S137.6,51.6,256,51.6s224.4,86,224.4,204.4S374.4,460.4,256,460.4z"/>
<g id="XMLID_5_" class="st2">
	<g id="XMLID_55_">
		<path id="XMLID_53_" class="st3" d="M256,486.7c-63.8,0-123.8-24-169-67.5C41.8,375.6,17,317.6,17,256S41.8,136.4,87,92.8
			c45.1-43.5,105.2-67.5,169-67.5s123.8,24,169,67.5C470.2,136.4,495,194.4,495,256c0,61.6-24.9,119.6-70.1,163.2
			C379.8,462.7,319.8,486.7,256,486.7z M256,31.3C127.4,31.3,22.9,132.1,22.9,256c0,123.9,104.6,224.7,233.1,224.7
			S489.1,379.9,489.1,256C489.1,132.1,384.6,31.3,256,31.3z"/>
	</g>
</g>
<g id="XMLID_6_" class="st2">
	<path id="XMLID_232_" class="st3" d="M249.2,92.4c0,0,0.3,0,0.9,0.1c0.6,0.1,1.4,0.2,2.3,0.4c0.9,0.2,2,0.5,3.2,0.9
		c1.1,0.4,2.3,0.9,3.5,1.6c1.1,0.6,2.2,1.3,3.2,2.1c1,0.8,1.8,1.6,2.4,2.3c0.6,0.7,1.1,1.4,1.4,1.9c0.3,0.5,0.4,0.8,0.4,0.8
		s-0.8-1-2.3-2.2c-0.7-0.6-1.6-1.3-2.5-2c-1-0.7-2-1.3-3.1-1.9c-2.2-1.2-4.5-2.2-6.3-2.8c-0.9-0.3-1.6-0.6-2.2-0.7
		C249.5,92.5,249.2,92.4,249.2,92.4z"/>
</g>
<g id="XMLID_26_" class="st2">
	<path id="XMLID_230_" class="st3" d="M206.7,100.1c0,0-0.7-0.1-1.8-0.1c-1.1,0-2.5,0-3.8,0.3c-0.3,0.1-0.7,0.1-1,0.2
		c-0.3,0.1-0.7,0.2-1,0.3c-0.6,0.2-1.2,0.4-1.7,0.6c-0.5,0.2-0.9,0.4-1.1,0.6c-0.2,0.2-0.3,0.4-0.3,0.4s0-0.2,0.2-0.5
		c0.2-0.3,0.5-0.7,1-1c0.5-0.3,1-0.7,1.7-0.9c0.3-0.1,0.6-0.3,1-0.4c0.4-0.1,0.7-0.2,1.1-0.3c1.5-0.3,3-0.2,4.1,0.1
		C206.1,99.7,206.7,100.1,206.7,100.1z"/>
</g>
<g id="XMLID_126_" class="st2">
	<path id="XMLID_217_" class="st3" d="M228.7,371.6c0,0-0.3,0.1-0.7,0.3c-0.5,0.2-1.1,0.5-2,0.7c-0.8,0.3-1.8,0.5-2.9,0.7
		c-1.1,0.2-2.2,0.3-3.4,0.4c-0.6,0-1.2,0-1.7,0c-0.6,0-1.2-0.1-1.7-0.2c-0.6-0.1-1.1-0.2-1.6-0.4c-0.5-0.2-0.9-0.3-1.3-0.5
		c-1.6-0.7-2.6-1.3-2.6-1.3s1.2,0,2.9,0.2c0.4,0,0.9,0.1,1.4,0.2c0.5,0,0.9,0.1,1.4,0.1c0.5,0,1,0,1.6,0c0.5,0,1.1,0,1.6,0
		c1.1,0,2.2-0.1,3.3-0.1c1,0,2-0.1,2.9-0.1c0.9,0,1.6,0,2.1,0C228.4,371.6,228.7,371.6,228.7,371.6z"/>
</g>
<g id="XMLID_125_" class="st2">
	<path id="XMLID_215_" class="st3" d="M208.4,372.7c0,0,1.3,0.1,3.1,0.3c0.5,0.1,0.9,0.1,1.5,0.2c0.5,0.1,1.1,0.1,1.6,0.2
		c1.1,0.2,2.3,0.3,3.5,0.5c0.6,0.1,1.2,0.1,1.7,0.2c0.6,0,1.1,0.1,1.6,0.1c0.5,0,1.1,0,1.6-0.1c0.5,0,1,0,1.5-0.1
		c0.9,0,1.7-0.1,2.2-0.1c0.5,0,0.8-0.1,0.8-0.1s-0.2,0.2-0.7,0.5c-0.5,0.3-1.2,0.6-2.1,0.9c-0.4,0.1-0.9,0.3-1.5,0.4
		c-0.5,0.1-1,0.3-1.7,0.3c-0.3,0.1-0.6,0.1-0.9,0.1c-0.3,0-0.6,0-0.9,0c-0.6,0-1.3-0.1-1.9-0.1c-0.6-0.1-1.2-0.2-1.8-0.3
		c-0.6-0.1-1.2-0.3-1.7-0.4c-1.1-0.3-2.1-0.7-3-1.1C209.4,373.4,208.4,372.7,208.4,372.7z"/>
</g>
<g id="XMLID_124_" class="st2">
	<path id="XMLID_212_" class="st3" d="M208.4,374.6c0,0,1.1,0.3,2.8,0.8c0.8,0.3,1.8,0.5,2.7,0.8c1,0.3,2.1,0.5,3.1,0.7
		c0.5,0.1,1,0.1,1.6,0.2c0.6,0.1,1.1,0.1,1.6,0.2c1.1,0.1,2,0.2,2.9,0.3c1.7,0.2,2.9,0.4,2.9,0.4s-1.1,0.4-2.8,0.7
		c-0.9,0.1-1.9,0.3-3,0.3c-0.5,0-1.1,0-1.7,0c-0.5,0-1.2-0.1-1.8-0.2c-1.2-0.2-2.4-0.6-3.4-1c-1-0.4-1.9-1-2.6-1.5
		C209.2,375.5,208.4,374.6,208.4,374.6z"/>
</g>
<path id="XMLID_281_" class="st4" d="M365.2,252l-2.8,23.7l-1.3,16.7l-8.9,22.7v3.1c0,2.2-0.9,4.3-2.4,5.8l-2.2,2.3
	c-1,1.1-2.4,1.8-3.8,2.1c-0.6,0.1-1.2,0.2-1.7,0.2h-3.5l-1.1,5l-2.5,11.4l-0.5,2.5c-1,4.4-2.9,8.5-5.6,12.1l-9.6,12.5
	c-1.6,2-3.4,3.9-5.4,5.5l-26.6,20.6c-6.3,4.8-13.9,7.5-21.9,7.5h-25.7c-8,0-15.8-2.7-22-7.6L194.5,380c-1.8-1.4-3.4-3-4.9-4.8
	l-10.1-12.5c-0.6-0.7-1.1-1.4-1.6-2.1c-0.3-0.5-0.6-1-0.9-1.5c-1.2-2-2.1-4.1-2.8-6.3c-0.1-0.2-0.1-0.4-0.2-0.6l-3.3-11.2l-0.2-0.8
	l-1.9-6.6v-8.6h-2c-2,0-3.9-0.8-5.3-2.2l-0.3-0.3c-1.6-1.5-2.4-3.6-2.4-5.8v-5.4l-4.2-13v-9.3l-7.5-22.9v-4.5c0-5,0.6-10,1.8-14.8
	c0.3-1.4,0.7-2.7,1.1-4.1l1.7-5.4l20.7-65.1l28.3-2l21.5-1.5l5.1-0.3l20.8-1.4l5.5-0.4l0.1,0l3-0.2l13.3-0.9l9.1-0.6l15.1-1
	l59.1,32.6v45.8h2.3c2.7,0,5.2,1.1,6.9,2.9c0.4,0.4,0.8,0.8,1.1,1.3c0,0,0.1,0.1,0.1,0.1c0.2,0.3,0.3,0.5,0.5,0.8
	C364.8,248.7,365.2,250.3,365.2,252z"/>
<path id="XMLID_279_" class="st4" d="M365.2,252l-2.8,23.7l-1.3,16.7l-8.9,22.7v3.1c0,2.2-0.9,4.3-2.4,5.8l-2.2,2.3
	c-1,1.1-2.4,1.8-3.8,2.1c-0.6,0.1-1.2,0.2-1.7,0.2h-3.5l-1.1,5l-2.5,11.4l-0.5,2.5c-1,4.4-2.9,8.5-5.6,12.1l-9.6,12.5
	c-1.6,2-3.4,3.9-5.4,5.5l-26.6,20.6c-6.3,4.8-13.9,7.5-21.9,7.5h-25.7c-8,0-15.8-2.7-22-7.6L194.5,380c-1.8-1.4-3.4-3-4.9-4.8
	l-10.1-12.5c-0.6-0.7-1.1-1.4-1.6-2.1c-0.3-0.5-0.6-1-0.9-1.5c-1.2-2-2.1-4.1-2.8-6.3c-0.1-0.2-0.1-0.4-0.2-0.6l-3.3-11.2l-0.2-0.8
	l-1.9-6.6v-8.6h-2c-2,0-3.9-0.8-5.3-2.2l-0.3-0.3c-1.6-1.5-2.4-3.6-2.4-5.8v-5.4l-4.2-13v-9.3l-7.5-22.9v-4.5c0-5,0.6-10,1.8-14.8
	c0.3-1.4,0.7-2.7,1.1-4.1l1.7-5.4l20.7-65.1l28.3-2l21.5-1.5l5.1-0.3l20.8-1.4l5.5-0.4l0.1,0l3-0.2l13.3-0.9l9.1-0.6l15.1-1
	l59.1,32.6v45.8h2.3c2.7,0,5.2,1.1,6.9,2.9c0.4,0.4,0.8,0.8,1.1,1.3c0,0,0.1,0.1,0.1,0.1c0.2,0.3,0.3,0.5,0.5,0.8
	C364.8,248.7,365.2,250.3,365.2,252z"/>
<path id="XMLID_236_" class="st1" d="M386.6,190.9l-6.7,0.4c-4.3,0.3-8.3,2.3-11.1,5.6l-5.7,6.8l4,7.5c1.4,2.6,2.1,5.5,2,8.5
	l-0.1,4.2l-2.9-3.1l-2.6,6.7v19.7c0,4.3-3.5,7.8-7.8,7.8l0,0l-8.5,8v29.6l-2.2,23.9l-0.8,1l-0.7,0.8l-0.7,0.9l-3.7,4.6l0.3-3.3
	l2.4-30.4v-20.8l-2.2-4.3l-8.7-16.7c-3.6-6.8-5.4-14.4-5.4-22.1v-16.3c0-3.9-3.2-7.1-7.1-7.1c-2.2,2.2-5.1,3.3-7.9,3.3
	c-2.9,0-5.8-1.1-8-3.3l-7.9-7.9c-3.9,0-7.7,0.8-11.3,2.2c-3.5,1.5-6.8,3.6-9.6,6.4l-3.3,3.3c-2.5,1.2-5.2,1.7-7.9,1.7
	c-2,0-4-0.3-5.9-0.9c-2.8-0.9-5.3-2.4-7.5-4.6l-2.7-2.7H235c-5.1,0-9.2,4.1-9.2,9.2c-3.1,3.2-6.7,5.9-10.5,8
	c-3.8,2.1-8,3.7-12.4,4.7l-12.4,2.8h-6.2c-2.9,0-5.4,2-6.1,4.8l-4.4,18.8l-1.1,13.6l-0.2,1.5l-2.9,21.3l2,26.7l-0.2,0.3l-1.6,2.5
	l-1-3.2h0l-2.3-7.7c-2.3-7.8-2.8-16.1-1.4-24.1l2.6-15.3l-12.3-13.3l0-0.1c-2.2,0-4.1-0.9-5.5-2.3c-0.5-0.5-0.9-1-1.2-1.6
	c-0.7-1.2-1.1-2.5-1.1-3.9v-16.9c-1-1.4-1.7-2.9-2.2-4.4c-0.5-1.6-0.7-3.2-0.7-4.9v-30c-3.5,0-7-0.7-10.2-2.1
	c-3.2-1.3-6.1-3.3-8.6-5.8l-0.5-0.5h12.8c2.1,0,3.9-1.7,3.9-3.9c0-2.7,0.2-5.5,0.7-8.2c0.4-2.7,1.1-5.4,2-8c0.6-1.8,1.7-3.3,3.2-4.3
	c1.5-1,3.2-1.6,5.1-1.6v-8.8h-10.9l8.5-4.2h-8.5l6.6-3.3h-4.9l9.9-5.3l9.2-6h-10.7l11.7-5c5.3-2.2,11-3.4,16.7-3.4l7.9-5.4h-8.4
	c0-1.4,0.2-2.7,0.6-4c0.4-1.3,1-2.5,1.8-3.6l0.6-0.8H173l2.9-1.4c1.5-0.7,3.1-1.1,4.8-1.1c2,0,3.9-0.4,5.6-1.2
	c1.8-0.8,3.4-1.9,4.7-3.3c0-0.4-0.2-0.7-0.4-1c-0.2-0.2-0.6-0.4-1-0.4h-4.9c-0.7,0.7-1.4,1.2-2.3,1.5c-0.8,0.4-1.8,0.5-2.7,0.5h-2.7
	l3.4-3.3c2.5-2.4,5.8-3.8,9.3-3.8c2.3-2.4,5.5-3.7,8.8-3.7c0.9,0,1.8,0.1,2.6,0.3L220,90l-16.7-7l35.4,5.8l-16.3-5.4h26.8l-12.1-5
	c5.1,0,10.2,0.5,15.1,1.6c1.4,0.3,2.9,0.7,4.3,1c3.5,1,6.9,2.2,10.2,3.7c1.6,0.7,3.1,1.7,4.4,3c1.3,1.2,2.3,2.7,3.1,4.3
	c0.5,1,1.2,1.8,2,2.3c0.9,0.5,1.9,0.9,3,0.9h6c0-1.5-0.3-2.9-0.8-4.3c-0.5-1.3-1.4-2.6-2.4-3.6l-1.9-2l3.3,1.3
	c5.1,2,9.2,6.1,11.1,11.2v2.4c0,3.9,3.2,7.1,7.1,7.1c0-1.4-0.4-2.7-1.1-3.9c-0.7-1.1-1.8-2.1-3-2.7l-0.3-0.1c3.2,0,6.3,0.6,9.2,1.8
	c2.9,1.2,5.5,2.9,7.8,5.2l1,1c5.3,0,10.6,1.1,15.4,3c4.8,2,9.3,4.9,13.1,8.7l4,4c5.4,5.4,8.4,12.7,8.4,20.3l-11.7-10.6
	c-2.8-2.5-7.2-1.3-8.3,2.3l-0.4,1.4l6.5,2.5c11.3,4.4,20.7,12.7,26.4,23.4l3.4,6.4l-0.4-0.4l-7.1-8.8c-5.5-6.7-12.9-11.5-21.2-13.8
	l24.4,20.4c1.1,0.9,2.2,1.9,3.2,2.8c4.6,4.2,8.7,8.9,12.3,13.9l-4.3-1.6c-3.5-1.3-7.5-0.6-10.2,2l-5.8,5.3l0.4-0.2
	C370.6,186.2,379.4,186.7,386.6,190.9z"/>
<g id="XMLID_8_" class="st2">
	<path id="XMLID_222_" class="st3" d="M225.2,189.8c0,0-0.7-0.3-1.8-0.9c-1.2-0.6-2.9-1.4-4.9-2.3c-1-0.5-2.1-1-3.3-1.5
		c-1.2-0.5-2.4-1-3.7-1.6c-1.3-0.6-2.6-1.1-4-1.6c-1.4-0.5-2.8-1.1-4.2-1.5c-1.4-0.5-2.8-0.9-4.2-1.4c-1.4-0.4-2.8-0.8-4.2-1
		c-1.4-0.3-2.7-0.5-4-0.8c-1.3-0.3-2.5-0.5-3.6-0.7c-2.2-0.4-4-0.9-5.3-1.1c-1.3-0.3-2-0.5-2-0.5s0.7,0.1,2,0.3
		c1.3,0.2,3.2,0.4,5.4,0.8c1.1,0.2,2.3,0.4,3.6,0.6c1.3,0.2,2.6,0.4,4,0.7c1.4,0.3,2.8,0.6,4.3,1c1.4,0.4,2.9,0.8,4.3,1.3
		c1.4,0.5,2.8,1,4.2,1.6c1.4,0.6,2.7,1.1,4,1.7c1.3,0.6,2.5,1.2,3.7,1.7c1.2,0.6,2.2,1.1,3.2,1.7c2,1,3.6,2,4.7,2.7
		C224.5,189.4,225.2,189.8,225.2,189.8z"/>
</g>
<g id="XMLID_9_" class="st2">
	<path id="XMLID_205_" class="st3" d="M210.9,203c0,0-0.5,0.2-1.3,0.6c-0.9,0.3-2.1,0.8-3.6,1.2c-3,0.9-7.2,1.6-11.4,1.8
		c-1.1,0-2.1,0-3.2,0c-0.5,0-1-0.1-1.6-0.1c-0.5-0.1-1-0.1-1.5-0.2c-1-0.1-2-0.4-2.9-0.7c-0.8-0.3-1.6-0.6-2.4-0.9
		c-1.5-0.6-2.7-1.1-3.5-1.5c-0.8-0.4-1.3-0.6-1.3-0.6s0.5,0,1.5,0.1c0.9,0.1,2.2,0.2,3.8,0.4c0.8,0.1,1.6,0.2,2.5,0.4
		c0.8,0.1,1.7,0.2,2.6,0.2c0.9,0.1,1.9,0.1,2.9,0c1,0,2,0,3-0.1c4-0.1,8.1-0.4,11.2-0.5c1.5-0.1,2.9-0.1,3.8-0.1
		C210.4,202.9,210.9,203,210.9,203z"/>
</g>
<g id="XMLID_10_" class="st2">
	<path id="XMLID_203_" class="st3" d="M173.8,205c0,0,0.6,0.1,1.5,0.2c1,0.1,2.4,0.3,4,0.6c0.8,0.1,1.7,0.3,2.7,0.4
		c0.9,0.2,1.9,0.3,2.9,0.5c2,0.3,4.2,0.7,6.3,1c1.1,0.1,2.1,0.3,3.2,0.3c0.5,0.1,1,0.1,1.5,0.1c0.5,0,1,0,1.5,0c0.9,0,2-0.1,2.9-0.1
		c0.9-0.1,1.8-0.1,2.7-0.2c1.7-0.1,3-0.2,4-0.3c0.5-0.1,0.9-0.1,1.1-0.1c0.3,0,0.4-0.1,0.4-0.1s-0.1,0.1-0.3,0.2
		c-0.2,0.1-0.6,0.3-1,0.6c-0.9,0.4-2.2,1-3.9,1.4c-0.8,0.2-1.7,0.5-2.7,0.7c-1,0.2-1.9,0.5-3.1,0.6c-0.6,0.1-1.1,0.1-1.7,0.1
		c-0.6,0-1.1,0-1.7,0c-1.1,0-2.3-0.2-3.4-0.3c-1.1-0.2-2.3-0.3-3.3-0.6c-1.1-0.2-2.2-0.5-3.2-0.8c-2-0.6-3.9-1.2-5.5-1.8
		c-1.6-0.6-2.9-1.2-3.7-1.7C174.3,205.3,173.8,205,173.8,205z"/>
</g>
<g id="XMLID_3_" class="st2">
	<path id="XMLID_201_" class="st3" d="M173.8,208.5c0,0,0.5,0.2,1.4,0.5c0.9,0.3,2.1,0.7,3.6,1.2c1.5,0.5,3.2,1.1,5,1.6
		c0.9,0.3,1.9,0.5,2.8,0.8c1,0.2,1.9,0.5,2.9,0.6c1,0.2,1.9,0.3,2.9,0.3c1,0.1,2,0.2,3,0.3c1.9,0.2,3.7,0.3,5.3,0.5
		c1.6,0.1,2.9,0.3,3.8,0.4c0.9,0.1,1.4,0.2,1.4,0.2s-0.5,0.2-1.4,0.4c-0.9,0.2-2.2,0.5-3.8,0.7c-1.6,0.2-3.4,0.4-5.4,0.4
		c-1,0-2,0-3.1,0c-1,0-2.2-0.1-3.3-0.3c-2.2-0.4-4.3-1.1-6.1-1.8c-0.9-0.4-1.8-0.8-2.6-1.3c-0.8-0.4-1.6-0.9-2.2-1.3
		c-1.4-0.8-2.4-1.7-3.1-2.3C174.2,208.9,173.8,208.5,173.8,208.5z"/>
</g>
<g id="XMLID_83_" class="st2">
	<path id="XMLID_199_" class="st3" d="M341.2,248.8c0,0-0.3-0.4-0.8-1.2c-0.5-0.8-1.1-2-1.7-3.4c-0.6-1.4-1.3-3.2-1.8-5.1
		c-0.3-0.9-0.5-1.9-0.8-3c-0.2-1-0.4-2.1-0.6-3.1c-0.1-1.1-0.3-2.1-0.3-3.2c0-0.5,0-1.1,0-1.6c0-0.5,0-1,0.1-1.6
		c0.1-1,0.2-2.1,0.5-3c0.2-0.9,0.5-1.7,0.7-2.4c0.5-1.5,0.9-2.7,1.3-3.6c0.4-0.9,0.6-1.3,0.6-1.3s0.1,0.5,0.2,1.5
		c0.1,0.9,0.2,2.2,0.2,3.8c0,0.8,0,1.6,0,2.5c0,0.8,0,1.7,0.1,2.6c0.1,0.9,0.2,1.8,0.3,2.8c0.1,1,0.3,2,0.4,2.9c0.1,1,0.3,2,0.4,3
		c0.1,1,0.3,2,0.4,2.9c0.3,1.9,0.5,3.7,0.6,5.2c0.1,1.6,0.2,2.9,0.3,3.8C341.2,248.2,341.2,248.8,341.2,248.8z"/>
</g>
<g id="XMLID_37_" class="st2">
	<path id="XMLID_197_" class="st3" d="M335.2,212.1c0,0,0.1,0.6,0.1,1.6c0,1,0.1,2.4,0,4.1c0,3.4-0.3,7.7-0.4,12c0,1.1,0,2.1,0,3.2
		c0,0.5,0,1,0.1,1.5c0,0.5,0,1,0.1,1.5c0.1,0.9,0.3,2,0.4,2.9c0.1,0.9,0.3,1.8,0.4,2.6c0.2,1.7,0.4,3,0.6,4c0.1,0.5,0.1,0.9,0.2,1.1
		c0.1,0.3,0.1,0.4,0.1,0.4s-0.1-0.1-0.3-0.3c-0.2-0.2-0.4-0.5-0.7-0.9c-0.6-0.8-1.3-2.1-2-3.6c-0.4-0.8-0.7-1.6-1.1-2.5
		c-0.3-0.9-0.7-1.8-1-3c-0.2-0.6-0.3-1.1-0.3-1.7c-0.1-0.6-0.2-1.2-0.2-1.7c-0.1-1.2-0.1-2.3-0.1-3.5c0.1-1.1,0.1-2.3,0.2-3.4
		c0.1-1.1,0.3-2.2,0.5-3.3c0.4-2.1,0.9-4,1.4-5.6c0.5-1.6,1-3,1.5-3.9C334.9,212.6,335.2,212.1,335.2,212.1z"/>
</g>
<g id="XMLID_32_" class="st2">
	<path id="XMLID_195_" class="st3" d="M158.1,209.6c0,0-0.6,2-1.4,5c-0.4,1.5-0.8,3.3-1.2,5.1c-0.4,1.9-0.7,3.9-0.8,5.9
		c-0.1,1-0.1,2,0,3c0,1,0.1,2,0.1,3c0.1,1.9,0.2,3.8,0.2,5.3c0.2,3.1,0.2,5.2,0.2,5.2s-0.7-2-1.4-5.1c-0.3-1.5-0.6-3.4-0.9-5.3
		c-0.1-1-0.2-2-0.3-3c-0.1-1-0.1-2.1,0-3.2c0.1-1.1,0.2-2.2,0.4-3.2c0.2-1,0.4-2,0.7-3c0.5-1.9,1.2-3.7,1.9-5.1
		C156.9,211.3,158.1,209.6,158.1,209.6z"/>
</g>
<g id="XMLID_2_" class="st2">
	<path id="XMLID_220_" class="st3" d="M194.6,167c0,0,0.4,0.1,1.1,0.4c0.7,0.3,1.6,0.7,2.7,1.3c0.5,0.3,1.1,0.6,1.7,1
		c0.6,0.4,1.3,0.8,1.9,1.2c0.6,0.4,1.3,0.9,1.9,1.4c0.6,0.5,1.3,1,1.9,1.6c0.6,0.6,1.2,1.1,1.8,1.8c0.6,0.6,1.1,1.2,1.6,1.8
		c0.9,1.2,1.8,2.4,2.5,3.4c0.7,1,1.3,1.8,1.7,2.4c0.4,0.6,0.6,0.9,0.6,0.9s-0.3-0.3-0.8-0.8c-0.5-0.5-1.2-1.3-2-2.2
		c-0.8-0.9-1.8-2-2.8-3.2c-0.5-0.6-1-1.2-1.6-1.7c-0.5-0.6-1.1-1.1-1.7-1.7c-1.2-1.1-2.5-2.1-3.7-3c-0.6-0.5-1.2-0.9-1.8-1.3
		c-0.6-0.4-1.1-0.8-1.6-1.1c-1-0.7-1.9-1.2-2.5-1.6C195,167.2,194.6,167,194.6,167z"/>
</g>
<g id="XMLID_1_" class="st2">
	<path id="XMLID_218_" class="st3" d="M252.8,177.8c0,0-1-1.9-2.4-4.7c-0.7-1.4-1.6-3.1-2.5-4.8c-0.9-1.7-1.9-3.6-3-5.4
		c-0.5-0.9-1.1-1.8-1.6-2.7c-0.6-0.9-1.1-1.7-1.7-2.5c-0.3-0.4-0.6-0.8-0.9-1.1c-0.3-0.4-0.6-0.7-0.9-1c-0.6-0.6-1.3-1.1-1.9-1.6
		c-1.2-1-2.2-1.9-3-2.5c-0.7-0.6-1.1-1-1.1-1s0.4,0.3,1.2,0.8c0.8,0.5,1.9,1.2,3.2,2.2c0.6,0.5,1.4,0.9,2.1,1.6c0.4,0.3,0.7,0.6,1,1
		c0.3,0.3,0.7,0.7,1,1.1c0.6,0.8,1.2,1.6,1.8,2.5c0.6,0.9,1.1,1.8,1.7,2.7c0.5,0.9,1,1.9,1.5,2.8c0.5,0.9,0.9,1.9,1.4,2.8
		c0.9,1.8,1.6,3.5,2.2,5c0.6,1.5,1.1,2.7,1.4,3.6C252.6,177.3,252.8,177.8,252.8,177.8z"/>
</g>
<g id="XMLID_14_" class="st2">
	<path id="XMLID_206_" class="st3" d="M255.1,174.8c0,0-0.1-0.4-0.2-1c-0.1-0.7-0.4-1.6-0.7-2.7c-0.3-1.1-0.7-2.4-1.2-3.8
		c-0.2-0.7-0.5-1.4-0.8-2.1c-0.3-0.7-0.6-1.4-1-2.1c-0.3-0.7-0.7-1.3-1.1-1.9c-0.2-0.3-0.4-0.6-0.6-0.9c-0.2-0.3-0.5-0.5-0.7-0.8
		c-0.5-0.5-1-1-1.4-1.5c-0.5-0.5-0.9-1-1.3-1.4c-0.8-0.9-1.4-1.6-1.9-2.1c-0.4-0.5-0.7-0.8-0.7-0.8s0.3,0.2,0.8,0.7
		c0.5,0.5,1.3,1.1,2.1,1.9c0.4,0.4,0.9,0.8,1.4,1.3c0.5,0.5,1,0.9,1.5,1.5c0.3,0.3,0.5,0.6,0.8,0.8c0.2,0.3,0.5,0.6,0.7,0.9
		c0.4,0.7,0.9,1.3,1.2,2c0.7,1.4,1.3,2.9,1.7,4.3c0.2,0.7,0.4,1.4,0.5,2.1c0.2,0.7,0.3,1.3,0.4,1.9
		C255.1,173.2,255.1,174.8,255.1,174.8z"/>
</g>
<g id="XMLID_15_" class="st2">
	<path id="XMLID_183_" class="st3" d="M359.2,217.2c0,0-0.1-0.3-0.4-0.8c-0.2-0.5-0.5-1.3-0.9-2.1c-0.3-0.9-0.7-1.9-1.2-2.9
		c-0.2-0.5-0.5-1.1-0.7-1.6c-0.2-0.5-0.5-1.1-0.7-1.6c-0.3-0.5-0.5-1.1-0.8-1.6c-0.3-0.5-0.5-1-0.8-1.5c-0.3-0.5-0.5-1-0.8-1.4
		c-0.3-0.4-0.5-0.9-0.8-1.3c-0.3-0.4-0.5-0.7-0.7-1.1c-0.2-0.3-0.4-0.6-0.6-0.8c-0.3-0.5-0.5-0.8-0.5-0.8s0.3,0.1,0.9,0.3
		c0.3,0.1,0.6,0.2,1,0.4c0.3,0.2,0.7,0.4,1.2,0.7c0.4,0.3,0.8,0.7,1.3,1c0.4,0.4,0.8,0.9,1.2,1.3c0.4,0.5,0.8,1,1.1,1.6
		c0.4,0.6,0.6,1.2,0.9,1.8c0.3,0.6,0.5,1.2,0.7,1.9c0.2,0.6,0.4,1.2,0.5,1.9c0.3,1.2,0.3,2.4,0.3,3.4c0,1-0.1,1.8-0.2,2.4
		C359.3,216.9,359.2,217.2,359.2,217.2z"/>
</g>
<g id="XMLID_17_" class="st2">
	<path id="XMLID_190_" class="st3" d="M272.2,175.6c0,0-0.1-0.4-0.4-1c-0.2-0.6-0.5-1.5-0.8-2.6c-0.7-2.2-1.4-5.1-2-8
		c-0.3-1.5-0.5-3-0.7-4.4c-0.1-0.7-0.1-1.4-0.1-2.1c0-0.7,0-1.3,0.1-1.8c0.1-1.1,0.1-2.1,0.2-2.7c0.1-0.7,0.1-1,0.1-1s0,0.4,0.1,1
		c0,0.7,0.1,1.6,0.2,2.7c0,0.6,0.1,1.2,0.1,1.8c0.1,0.6,0.2,1.3,0.3,2c0.1,0.7,0.2,1.4,0.4,2.1c0.1,0.7,0.3,1.5,0.4,2.2
		c0.6,2.9,1.1,5.9,1.6,8.1c0.2,1.1,0.4,2,0.5,2.7C272.1,175.3,272.2,175.6,272.2,175.6z"/>
</g>
<g id="XMLID_18_" class="st2">
	<path id="XMLID_188_" class="st3" d="M313.3,152c0,0-0.3-0.6-0.9-1.6c-0.6-1-1.4-2.5-2.5-4.2c-0.6-0.8-1.2-1.7-1.9-2.7
		c-0.7-0.9-1.5-1.8-2.3-2.8c-0.8-0.9-1.8-1.8-2.8-2.6c-0.5-0.4-1-0.8-1.6-1.2c-0.5-0.4-1.1-0.7-1.7-1l-0.9-0.4l-0.9-0.4
		c-0.6-0.3-1.2-0.5-1.9-0.7c-1.2-0.4-2.5-0.8-3.7-1.1c-1.2-0.3-2.4-0.6-3.5-0.9c-1.1-0.3-2.2-0.5-3.2-0.7c-2-0.4-3.6-0.7-4.8-0.9
		c-1.2-0.2-1.8-0.3-1.8-0.3s2.7,0,6.7,0.6c1,0.1,2.1,0.3,3.2,0.5c1.1,0.2,2.4,0.4,3.6,0.8c1.2,0.3,2.5,0.6,3.8,1.1
		c0.6,0.2,1.3,0.4,1.9,0.7l0.9,0.4c0.3,0.1,0.6,0.3,1,0.5c0.6,0.3,1.2,0.7,1.8,1.1c0.6,0.4,1.1,0.8,1.6,1.2c1,0.9,2,1.8,2.8,2.8
		c0.8,1,1.6,2,2.2,2.9c0.7,1,1.2,1.9,1.8,2.8c1,1.8,1.7,3.3,2.2,4.4C313.1,151.4,313.3,152,313.3,152z"/>
</g>
<g id="XMLID_19_" class="st2">
	<path id="XMLID_175_" class="st3" d="M311.7,156.4c0,0-0.5-0.3-1.3-0.8c-0.8-0.5-1.9-1.3-3.1-2.2c-1.3-1-2.7-2.1-4.1-3.4
		c-1.5-1.3-3-2.6-4.5-4c-0.8-0.7-1.5-1.4-2.2-2c-0.8-0.6-1.5-1.3-2.2-1.9c-0.7-0.6-1.4-1.2-2-1.6c-0.3-0.2-0.6-0.4-1-0.7
		c-0.4-0.2-0.7-0.4-1.1-0.6c-1.4-0.8-2.5-1.6-3.2-2.1c-0.8-0.6-1.2-0.9-1.2-0.9s0.5,0,1.5,0.2c0.9,0.1,2.2,0.4,3.8,0.7
		c0.4,0.1,0.8,0.2,1.2,0.3c0.4,0.1,0.9,0.3,1.4,0.5c0.9,0.4,1.8,0.9,2.7,1.4c0.9,0.5,1.7,1.2,2.6,1.8c0.8,0.7,1.7,1.3,2.4,2.1
		c3.2,2.9,5.9,6.1,7.7,8.8c0.9,1.3,1.6,2.5,2,3.3C311.4,155.9,311.7,156.4,311.7,156.4z"/>
</g>
<g id="XMLID_20_" class="st2">
	<path id="XMLID_184_" class="st3" d="M264.8,132.7c0,0,0.4,0.2,1.2,0.5c0.8,0.4,1.8,0.9,3.1,1.6c1.3,0.7,2.7,1.5,4.3,2.5
		c0.8,0.5,1.5,1,2.3,1.6c0.8,0.6,1.5,1.1,2.3,1.7l1.1,1c0.3,0.3,0.7,0.7,1,1c0.3,0.4,0.6,0.7,1,1.1c0.3,0.4,0.6,0.7,0.8,1.1
		c1.1,1.5,1.9,3,2.5,4.3c0.6,1.3,0.9,2.5,1.1,3.3c0.2,0.8,0.2,1.3,0.2,1.3s-0.1-0.5-0.4-1.3c-0.3-0.8-0.7-1.9-1.4-3.1
		c-0.3-0.6-0.7-1.3-1.2-2c-0.4-0.7-1-1.4-1.5-2c-0.3-0.3-0.6-0.7-0.9-1c-0.3-0.3-0.6-0.7-0.9-1c-0.3-0.3-0.7-0.6-1-1l-1.1-0.9
		c-0.7-0.6-1.5-1.2-2.2-1.7c-0.8-0.5-1.5-1.1-2.2-1.6c-1.5-1-2.8-2-4.1-2.7C266.4,133.7,264.8,132.7,264.8,132.7z"/>
</g>
<g id="XMLID_21_" class="st2">
	<path id="XMLID_178_" class="st3" d="M249.3,148.3c0,0,0.6-0.2,1.6-0.5c0.5-0.1,1.2-0.3,1.9-0.5c0.7-0.2,1.6-0.3,2.5-0.4
		c0.9-0.1,1.9-0.2,3-0.2c1.1,0,2.2,0,3.4,0.2c1.2,0.2,2.4,0.4,3.6,0.7c1.2,0.4,2.4,0.8,3.5,1.4c0.5,0.3,1.1,0.6,1.6,1
		c0.5,0.4,1.1,0.8,1.5,1.2l0.7,0.6c0.2,0.2,0.4,0.5,0.6,0.7l0.6,0.7c0.2,0.2,0.4,0.5,0.5,0.7c0.4,0.5,0.7,1,1,1.4
		c0.3,0.5,0.6,1,0.8,1.5c0.3,0.5,0.5,1,0.7,1.4c0.2,0.5,0.4,0.9,0.6,1.4c0.3,0.9,0.6,1.7,0.8,2.4c0.2,0.7,0.3,1.4,0.5,1.9
		c0.2,1.1,0.3,1.7,0.3,1.7s-0.1-0.6-0.5-1.6c-0.2-0.5-0.4-1.1-0.6-1.8c-0.1-0.4-0.3-0.7-0.4-1.1c-0.2-0.4-0.3-0.8-0.5-1.2
		c-0.2-0.4-0.4-0.9-0.6-1.3c-0.2-0.4-0.5-0.9-0.7-1.3c-0.3-0.5-0.5-0.9-0.9-1.4c-0.3-0.5-0.6-0.9-1-1.4c-0.2-0.2-0.4-0.4-0.5-0.7
		l-0.6-0.6c-0.4-0.4-0.8-0.8-1.3-1.2c-0.4-0.4-0.9-0.7-1.4-1.1c-0.4-0.4-1-0.6-1.6-0.9c-1-0.6-2.2-1-3.3-1.4
		c-1.1-0.4-2.3-0.6-3.4-0.8c-1.1-0.2-2.2-0.3-3.3-0.3c-1.1,0-2,0-3,0c-0.9,0.1-1.8,0.1-2.5,0.2c-0.7,0.1-1.4,0.2-1.9,0.3
		C249.9,148.1,249.3,148.3,249.3,148.3z"/>
</g>
<g id="XMLID_22_" class="st2">
	<path id="XMLID_176_" class="st3" d="M213.2,162.8c0,0,0.8,0.4,1.9,1.2c0.6,0.4,1.2,0.8,1.9,1.2c0.7,0.4,1.4,0.9,2.2,1.4
		c1.5,1,2.9,1.9,4.1,2.5c0.3,0.2,0.6,0.3,0.8,0.4c0.2,0.1,0.4,0.2,0.6,0.3c0.4,0.2,0.6,0.2,0.6,0.2s-0.2,0-0.6-0.1
		c-0.2,0-0.4-0.1-0.7-0.1c-0.3-0.1-0.6-0.1-0.9-0.2c-0.6-0.2-1.4-0.5-2.1-0.9c-0.8-0.4-1.5-0.8-2.3-1.3c-1.5-1-2.9-2.1-3.8-3
		C213.7,163.5,213.2,162.8,213.2,162.8z"/>
</g>
<g id="XMLID_23_" class="st2">
	<path id="XMLID_172_" class="st3" d="M245.8,111.2c0,0-1-0.1-2.4-0.2c-0.7,0-1.5-0.1-2.4-0.1c-0.9,0-1.8-0.1-2.8-0.1
		c-0.5,0-0.9,0-1.4,0c-0.5,0-0.9,0-1.4,0c-0.9,0-1.7,0.1-2.4,0.1c-0.4,0-0.7,0.1-1,0.1c-0.3,0-0.5,0.1-0.7,0.1
		c-0.4,0-0.7,0.1-0.7,0.1s0.2-0.1,0.6-0.2c0.4-0.1,1-0.4,1.7-0.5c0.3-0.1,0.7-0.2,1.1-0.2c0.4-0.1,0.8-0.2,1.3-0.2
		c0.9-0.1,1.9-0.1,2.8-0.1c1,0,1.9,0.1,2.8,0.2c0.9,0.1,1.7,0.3,2.4,0.4C244.9,110.8,245.8,111.2,245.8,111.2z"/>
</g>
<g id="XMLID_24_" class="st2">
	<path id="XMLID_170_" class="st3" d="M225.2,116.2c0,0,0.3-0.2,0.8-0.5c0.5-0.3,1.2-0.7,2.2-1.1c0.9-0.4,2-0.8,3.3-1.1
		c0.6-0.2,1.3-0.3,1.9-0.4c0.7-0.1,1.3-0.2,2-0.2c0.7,0,1.3,0,2,0c0.7,0,1.3,0.1,1.9,0.2c1.2,0.1,2.4,0.3,3.4,0.4
		c1,0.1,1.8,0.3,2.4,0.4c0.6,0.1,0.9,0.2,0.9,0.2s-0.3,0-0.9,0c-0.6,0-1.4,0-2.4,0c-1,0-2.1,0-3.4-0.1c-0.6,0-1.3,0-1.9-0.1
		c-0.6,0-1.3,0-1.9,0c-2.6,0.1-5.1,0.7-7,1.2c-0.9,0.3-1.7,0.5-2.3,0.7C225.5,116.1,225.2,116.2,225.2,116.2z"/>
</g>
<g id="XMLID_16_" class="st2">
	<path id="XMLID_168_" class="st3" d="M213.3,94.9c0,0-1-0.1-2.4-0.2c-0.7,0-1.5-0.1-2.4-0.1c-0.9,0-1.8-0.1-2.8-0.1
		c-0.5,0-0.9,0-1.4,0c-0.5,0-0.9,0-1.4,0c-0.9,0-1.7,0.1-2.4,0.1c-0.4,0-0.7,0.1-1,0.1c-0.3,0-0.5,0.1-0.7,0.1
		c-0.4,0-0.7,0.1-0.7,0.1s0.2-0.1,0.6-0.2c0.4-0.1,1-0.4,1.7-0.5c0.3-0.1,0.7-0.2,1.1-0.2c0.4-0.1,0.8-0.2,1.3-0.2
		c0.9-0.1,1.9-0.1,2.8-0.1c1,0,1.9,0.1,2.8,0.2c0.9,0.1,1.7,0.3,2.4,0.4C212.4,94.5,213.3,94.9,213.3,94.9z"/>
</g>
<g id="XMLID_25_" class="st2">
	<path id="XMLID_166_" class="st3" d="M192.7,99.9c0,0,0.3-0.2,0.8-0.5c0.5-0.3,1.2-0.7,2.2-1.1c0.9-0.4,2-0.8,3.3-1.1
		c0.6-0.2,1.3-0.3,1.9-0.4c0.7-0.1,1.3-0.2,2-0.2c0.7,0,1.3,0,2,0c0.7,0,1.3,0.1,1.9,0.2c1.2,0.1,2.4,0.3,3.4,0.4
		c1,0.1,1.8,0.3,2.4,0.4c0.6,0.1,0.9,0.2,0.9,0.2s-0.3,0-0.9,0c-0.6,0-1.4,0-2.4,0c-1,0-2.1,0-3.4-0.1c-0.6,0-1.3,0-1.9-0.1
		c-0.6,0-1.3,0-1.9,0c-2.6,0.1-5.1,0.7-7,1.2c-0.9,0.3-1.7,0.5-2.3,0.7C193,99.8,192.7,99.9,192.7,99.9z"/>
</g>
<g id="XMLID_27_" class="st2">
	<path id="XMLID_150_" class="st3" d="M310.8,117.9c0,0,1.3-0.3,3.3-0.4c1-0.1,2.2-0.1,3.4,0c1.2,0,2.6,0.2,3.9,0.4
		c0.7,0.1,1.3,0.2,2,0.4c0.6,0.1,1.3,0.3,1.9,0.5c0.3,0.1,0.6,0.2,0.9,0.3c0.3,0.1,0.6,0.2,0.9,0.4c0.5,0.2,1,0.5,1.4,0.7
		c1.8,0.9,2.9,1.7,2.9,1.7s-1.3-0.1-3.3-0.6c-0.5-0.1-1-0.2-1.5-0.4c-0.5-0.1-1.1-0.2-1.7-0.3c-1.2-0.2-2.4-0.4-3.7-0.6
		c-1.3-0.2-2.6-0.4-3.8-0.6c-1.2-0.2-2.3-0.4-3.3-0.6C312.1,118.3,310.8,117.9,310.8,117.9z"/>
</g>
<g id="XMLID_28_" class="st2">
	<path id="XMLID_143_" class="st3" d="M313.7,114.8c0,0,0.3-0.1,1-0.3c0.6-0.1,1.6-0.3,2.7-0.3c0.6,0,1.2,0,1.8,0
		c0.6,0,1.3,0.1,2,0.2c0.7,0.1,1.4,0.2,2.1,0.4c0.7,0.1,1.4,0.3,2.1,0.5c0.7,0.2,1.4,0.4,2.1,0.7c0.7,0.2,1.3,0.5,2,0.8
		c0.6,0.3,1.2,0.6,1.8,0.9c0.6,0.3,1.1,0.7,1.5,1c0.9,0.7,1.6,1.4,1.9,2c0.2,0.3,0.2,0.6,0.2,0.7c0,0.2,0,0.3,0,0.3s0-0.1-0.1-0.2
		c-0.1-0.1-0.2-0.3-0.5-0.5c-0.5-0.4-1.2-0.9-2.2-1.3c-0.5-0.2-1-0.4-1.6-0.6c-0.6-0.2-1.2-0.4-1.8-0.6c-0.6-0.2-1.3-0.4-2-0.6
		c-0.7-0.2-1.3-0.4-2-0.6c-1.4-0.4-2.7-0.8-4-1.1c-0.6-0.2-1.3-0.3-1.9-0.4c-0.6-0.1-1.2-0.2-1.7-0.3c-1.1-0.2-1.9-0.3-2.6-0.4
		C314.1,114.8,313.7,114.8,313.7,114.8z"/>
</g>
<g id="XMLID_29_" class="st2">
	<path id="XMLID_164_" class="st3" d="M227.1,168.9c0,0-0.4-0.7-0.9-1.7c-0.3-0.5-0.6-1.1-1-1.6c-0.2-0.3-0.4-0.6-0.6-0.9
		c-0.2-0.3-0.4-0.6-0.7-0.9c-0.2-0.3-0.5-0.5-0.7-0.8c-0.3-0.2-0.5-0.5-0.8-0.7c-0.3-0.2-0.5-0.4-0.8-0.6c-0.3-0.2-0.5-0.4-0.7-0.5
		c-0.2-0.1-0.5-0.2-0.7-0.3c-0.2-0.1-0.4-0.1-0.6-0.2c-0.3-0.1-0.5-0.2-0.5-0.2s0.2,0,0.5,0c0.2,0,0.4,0,0.6,0
		c0.2,0,0.5,0.1,0.8,0.2c0.3,0.1,0.6,0.2,0.9,0.4c0.3,0.1,0.6,0.3,0.9,0.5c0.3,0.2,0.6,0.5,0.9,0.7c0.3,0.3,0.6,0.6,0.8,0.9
		c0.5,0.6,0.9,1.3,1.3,1.9c0.3,0.6,0.6,1.3,0.8,1.8C227.1,168.1,227.1,168.9,227.1,168.9z"/>
</g>
<g id="XMLID_30_" class="st2">
	<path id="XMLID_162_" class="st3" d="M227.1,124.6c0,0-0.3,0-0.8,0c-0.5,0-1.2,0.1-2.1,0.1c-1.7,0-4,0-6.3,0
		c-2.3,0-4.6-0.1-6.3-0.1c-0.9,0-1.6,0-2.1,0c-0.5,0-0.8,0-0.8,0s0.3-0.1,0.8-0.2c0.5-0.1,1.2-0.2,2.1-0.4c0.9-0.1,1.9-0.2,3-0.3
		c1.1-0.1,2.2-0.1,3.4-0.1c2.3,0,4.6,0.2,6.3,0.4c0.9,0.1,1.6,0.2,2.1,0.3C226.8,124.5,227.1,124.6,227.1,124.6z"/>
</g>
<g id="XMLID_31_" class="st2">
	<path id="XMLID_151_" class="st3" d="M230.8,137.7c0,0-0.1,0-0.1-0.1c-0.1,0-0.2-0.1-0.4-0.2c-0.3-0.3-0.7-0.7-1.2-1.2
		c-0.9-1-1.9-2.4-3.1-3.7c-0.3-0.3-0.6-0.7-0.9-0.9c-0.3-0.3-0.6-0.6-0.9-0.9c-0.3-0.3-0.6-0.5-0.9-0.7c-0.3-0.2-0.6-0.4-0.9-0.6
		c-0.3-0.2-0.6-0.3-0.8-0.4c-0.2-0.1-0.5-0.2-0.6-0.3c-0.4-0.1-0.6-0.2-0.6-0.2s0.2,0,0.6,0c0.2,0,0.5,0,0.7,0.1
		c0.3,0.1,0.6,0.1,0.9,0.2c0.3,0.1,0.7,0.3,1,0.5c0.3,0.2,0.7,0.4,1.1,0.7c0.3,0.3,0.7,0.5,1,0.9c0.3,0.3,0.6,0.6,1,1
		c0.6,0.7,1.1,1.4,1.6,2.1c0.5,0.7,0.9,1.4,1.2,2c0.3,0.6,0.6,1.1,0.8,1.4c0.1,0.2,0.2,0.3,0.3,0.3
		C230.7,137.6,230.8,137.7,230.8,137.7z"/>
</g>
<g id="XMLID_33_" class="st2">
	<path id="XMLID_139_" class="st3" d="M225.6,137.7c0,0-0.2-0.1-0.5-0.3c-0.3-0.2-0.7-0.5-1.2-0.9c-0.5-0.4-1-0.8-1.7-1.2
		c-0.6-0.4-1.3-0.8-2.1-1c-0.3-0.2-0.7-0.3-1.1-0.4c-0.4-0.1-0.7-0.2-1.1-0.3c-0.4-0.1-0.7-0.2-1-0.3c-0.3-0.1-0.7-0.1-0.9-0.2
		c-0.6-0.1-1.1-0.2-1.4-0.3c-0.4-0.1-0.6-0.1-0.6-0.1s0.2,0,0.6-0.1c0.4,0,0.9-0.1,1.5-0.1c0.3,0,0.7,0,1,0c0.4,0,0.7,0.1,1.1,0.1
		c0.4,0.1,0.8,0.2,1.2,0.3c0.4,0.1,0.8,0.2,1.2,0.4c0.4,0.2,0.8,0.4,1.1,0.6c0.4,0.2,0.7,0.4,1,0.7c0.6,0.5,1.2,1,1.6,1.5
		c0.4,0.5,0.7,0.9,0.9,1.2C225.4,137.5,225.6,137.7,225.6,137.7z"/>
</g>
<g id="XMLID_34_" class="st2">
	<path id="XMLID_132_" class="st3" d="M366.9,175.3c-0.6-0.2-1.3-0.4-1.9-0.5c-0.6-0.2-1.3-0.3-1.9-0.5c-0.6-0.1-1.3-0.3-1.9-0.4
		c-0.3-0.1-0.6-0.1-0.9-0.2c-0.3-0.1-0.6-0.1-0.9-0.1c-0.6-0.1-1.3-0.2-1.9-0.2c-0.6,0-1.3-0.1-1.9-0.1c-0.6,0-1.3,0-1.9,0
		c-0.6,0-1.2,0.1-1.9,0.1l-0.3-2c0.4,0,0.7,0,1,0c0.3,0,0.6,0.1,0.9,0.1c0.6,0.1,1.2,0.3,1.8,0.4c0.6,0.2,1.1,0.4,1.7,0.7
		c0.5,0.3,1.1,0.6,1.6,0.9c0.5,0.3,1,0.7,1.4,1.1c0.4,0.4,0.9,0.7,1.3,1.1c0.9,0.8,1.7,1.5,2.5,2.4c-1-0.5-2.1-1.1-3.1-1.6
		c-0.5-0.3-1-0.6-1.5-0.9l-0.7-0.4c-0.2-0.1-0.5-0.3-0.7-0.4c-0.5-0.3-1-0.5-1.5-0.7c-0.5-0.2-1-0.4-1.5-0.5c-0.5-0.1-1-0.2-1.5-0.3
		c-0.3,0-0.5-0.1-0.8-0.1c-0.2,0-0.5,0-0.7,0l-0.3-2c0.7-0.1,1.4-0.2,2.1-0.2c0.7,0,1.4,0,2.1,0c0.3,0,0.7,0.1,1,0.1
		c0.3,0,0.7,0.1,1,0.1c0.7,0.1,1.3,0.2,2,0.4c0.3,0.1,0.7,0.2,1,0.3c0.3,0.1,0.6,0.2,1,0.3c0.6,0.2,1.3,0.5,1.9,0.7
		C364.6,173.9,365.8,174.5,366.9,175.3z"/>
</g>
<g id="XMLID_35_" class="st2">
	<path id="XMLID_133_" class="st3" d="M146.2,177.8c0,0-0.2-1.4-0.4-3.4c0-0.5-0.1-1.1-0.1-1.6c0-0.6,0-1.2,0-1.8
		c0-1.3,0.1-2.6,0.2-4c0.2-1.3,0.4-2.7,0.7-3.9c0.2-0.6,0.4-1.2,0.6-1.8c0.2-0.6,0.5-1.1,0.7-1.5c0.2-0.5,0.5-0.9,0.8-1.2
		c0.3-0.3,0.6-0.6,0.8-0.8c0.5-0.4,0.8-0.5,0.8-0.5s-0.2,0.3-0.5,0.8c-0.1,0.3-0.3,0.6-0.4,0.9c-0.1,0.4-0.3,0.8-0.4,1.3
		c-0.1,0.5-0.2,1-0.3,1.5c-0.1,0.5-0.2,1.1-0.3,1.7c-0.1,0.6-0.1,1.2-0.3,1.9c-0.1,0.6-0.2,1.3-0.2,1.9c-0.2,1.3-0.3,2.6-0.5,3.9
		c-0.2,1.2-0.3,2.4-0.5,3.4C146.7,176.5,146.2,177.8,146.2,177.8z"/>
</g>
<g id="XMLID_36_" class="st2">
	<path id="XMLID_135_" class="st3" d="M148.3,177.8c0,0,0.1-0.1,0-0.2c0-0.1,0-0.4,0-0.7c0-0.6-0.1-1.4-0.1-2.4c0-1,0-2.2,0.1-3.4
		c0.1-1.3,0.2-2.6,0.4-3.9c0.2-1.3,0.5-2.7,0.8-3.9c0.3-1.2,0.7-2.4,1.2-3.3c0.4-0.9,0.9-1.7,1.4-2.1c0.2-0.2,0.4-0.4,0.6-0.4
		c0.1-0.1,0.2-0.1,0.2-0.1s-0.1,0.1-0.2,0.2c-0.1,0.1-0.2,0.3-0.3,0.6c-0.1,0.3-0.2,0.6-0.3,1c-0.1,0.4-0.2,0.8-0.3,1.3
		c-0.2,1-0.3,2.1-0.5,3.3c-0.2,1.2-0.3,2.5-0.5,3.8c-0.2,1.3-0.4,2.6-0.6,3.8c-0.2,1.2-0.5,2.4-0.7,3.4c-0.2,1-0.5,1.8-0.7,2.4
		c-0.1,0.3-0.2,0.5-0.3,0.7C148.4,177.8,148.3,177.8,148.3,177.8z"/>
</g>
<g id="XMLID_38_" class="st2">
	<path id="XMLID_137_" class="st3" d="M148.3,185.5c0,0-0.2-1.4-0.2-3.6c0-1.1,0.1-2.3,0.2-3.6c0.1-0.7,0.1-1.4,0.3-2
		c0.1-0.7,0.2-1.4,0.4-2.1c0.3-1.4,0.7-2.8,1.1-4.1c0.2-0.6,0.5-1.2,0.7-1.8c0.2-0.6,0.5-1.1,0.8-1.6c0.2-0.5,0.5-0.9,0.8-1.3
		c0.3-0.4,0.5-0.7,0.7-0.9c0.4-0.5,0.7-0.7,0.7-0.7s-0.1,0.3-0.4,0.9c-0.1,0.3-0.2,0.6-0.4,1c-0.1,0.4-0.3,0.8-0.4,1.4
		c-0.3,1-0.6,2.2-0.9,3.4c-0.2,0.6-0.3,1.3-0.4,2c-0.1,0.7-0.3,1.3-0.4,2c-0.3,1.4-0.6,2.7-0.8,4c-0.3,1.3-0.5,2.5-0.8,3.5
		C148.8,184.1,148.3,185.5,148.3,185.5z"/>
</g>
<g id="XMLID_113_">
	<path id="XMLID_40_" class="st5" d="M182.4,256.9l9.9-9.9c1.3-1.3,3.1-2.1,5-2.1h5.8c5.7,0,11.5,0.6,17.1,1.9l17.7,5.3l-4,2.5
		l4,3.2h-14l-21.6-4.6h-8.2l-7.1,3.5C185.6,257.5,183.9,257.5,182.4,256.9L182.4,256.9z"/>
	<path id="XMLID_41_" class="st5" d="M306.6,244.9l4.2,1.6c8.1,3.1,14.8,9.2,18.7,17v0l-24.5-7.3h-11.3l-18.6,4.1
		c-2,0.4-4-0.2-5.5-1.6l0,0l11.3-5.9l-4.6-1.4L308,249c1.1-0.1,1.5-1.4,0.7-2.1L306.6,244.9z"/>
</g>
<g id="XMLID_39_" class="st2">
	<path id="XMLID_110_" class="st6" d="M184,254.3c0,0,0.2-0.8,0.9-1.7c0.6-1,1.5-2.1,2.6-3.1c0.6-0.5,1.1-1,1.7-1.3
		c0.6-0.4,1.2-0.7,1.8-0.9c0.3-0.1,0.5-0.2,0.8-0.2c0.3,0,0.5-0.1,0.6-0.1c0.4,0,0.5,0.1,0.5,0.1s-0.2,0.1-0.4,0.3
		c-0.1,0.1-0.3,0.2-0.4,0.4c-0.2,0.2-0.3,0.3-0.5,0.5c-0.7,0.8-1.7,1.8-2.8,2.7c-1.1,0.9-2.2,1.8-3.1,2.4
		C184.8,253.9,184,254.3,184,254.3z"/>
</g>
<g id="XMLID_42_" class="st2">
	<path id="XMLID_108_" class="st6" d="M214.9,255c0,0,0.6-0.2,1.6-0.3c0.9-0.1,2.1-0.1,3.3,0.1c1.2,0.2,2.3,0.4,3.2,0.7
		c0.9,0.3,1.5,0.6,1.5,0.6s-0.6,0.3-1.5,0.5c-0.9,0.2-2.2,0.3-3.4,0.1c-1.2-0.2-2.4-0.5-3.2-0.9C215.4,255.4,214.9,255,214.9,255z"
		/>
</g>
<g id="XMLID_116_" class="st2">
	<path id="XMLID_106_" class="st6" d="M198.1,251.2c0,0,0.6-0.2,1.6-0.3c0.9-0.1,2.1-0.1,3.3,0.1c1.2,0.2,2.3,0.4,3.2,0.7
		c0.9,0.3,1.5,0.6,1.5,0.6s-0.6,0.3-1.5,0.5c-0.9,0.2-2.2,0.3-3.4,0.1c-1.2-0.2-2.4-0.5-3.2-0.9
		C198.6,251.7,198.1,251.2,198.1,251.2z"/>
</g>
<g id="XMLID_43_" class="st2">
	<path id="XMLID_104_" class="st6" d="M208.7,247c0,0,1.3-0.1,3.2,0c1,0.1,2.1,0.2,3.3,0.3c1.2,0.2,2.5,0.4,3.7,0.7
		c1.3,0.3,2.5,0.6,3.6,1.1c0.6,0.2,1.1,0.4,1.6,0.7c0.5,0.2,1,0.5,1.4,0.7c1.7,0.9,2.8,1.7,2.8,1.7s-1.3-0.1-3.2-0.6
		c-0.5-0.1-1-0.2-1.5-0.4c-0.5-0.1-1.1-0.2-1.6-0.4c-0.6-0.1-1.2-0.3-1.8-0.4c-0.6-0.1-1.2-0.3-1.8-0.4c-1.2-0.3-2.5-0.6-3.6-0.9
		c-1.2-0.3-2.2-0.6-3.1-0.9C209.9,247.6,208.7,247,208.7,247z"/>
</g>
<g id="XMLID_44_" class="st2">
	<path id="XMLID_102_" class="st6" d="M271.1,257.9c0,0,0.9-0.4,2.2-0.8c1.3-0.4,3-0.9,4.7-1.3c0.8-0.2,1.7-0.4,2.5-0.6
		c0.8-0.2,1.6-0.3,2.3-0.4c1.4-0.2,2.3-0.2,2.3-0.2s-0.7,0.6-1.9,1.3c-0.6,0.3-1.3,0.7-2.1,1c-0.8,0.3-1.7,0.6-2.6,0.8
		c-1.8,0.4-3.6,0.5-5,0.4C272,258.2,271.1,257.9,271.1,257.9z"/>
</g>
<g id="XMLID_45_" class="st2">
	<path id="XMLID_100_" class="st6" d="M307.9,248.1c0,0,1.3,0.2,3,0.9c0.4,0.2,0.9,0.4,1.4,0.6c0.5,0.2,1,0.5,1.5,0.8
		c1,0.6,2.1,1.3,3,2.1c1,0.8,1.9,1.7,2.6,2.7c0.4,0.5,0.7,0.9,0.9,1.4c0.3,0.4,0.5,0.9,0.8,1.3c0.9,1.6,1.4,2.8,1.4,2.8
		s-1-0.8-2.3-2c-0.3-0.3-0.7-0.7-1-1.1c-0.4-0.4-0.7-0.8-1.1-1.2c-0.4-0.4-0.8-0.8-1.2-1.1c-0.4-0.4-0.9-0.8-1.3-1.1
		c-0.4-0.4-0.9-0.7-1.4-1.1c-0.5-0.3-0.9-0.7-1.4-1c-0.9-0.7-1.7-1.3-2.5-1.8C308.9,249,307.9,248.1,307.9,248.1z"/>
</g>
<g id="XMLID_111_" class="st2">
	<path id="XMLID_98_" class="st6" d="M310.3,257.2c0,0-1-0.1-2.3-0.4c-1.3-0.3-3-0.8-4.7-1.1c-0.4-0.1-0.8-0.2-1.2-0.3
		c-0.4-0.1-0.8-0.2-1.2-0.2c-0.4-0.1-0.8-0.1-1.2-0.2c-0.4-0.1-0.8-0.1-1.1-0.2c-1.4-0.3-2.2-0.6-2.2-0.6s0.9-0.3,2.3-0.5
		c0.3-0.1,0.7-0.1,1.1-0.2c0.4,0,0.8-0.1,1.2-0.1c0.9,0,1.9,0.1,2.8,0.3c1.9,0.4,3.5,1.3,4.7,2C309.6,256.5,310.3,257.2,310.3,257.2
		z"/>
</g>
<g id="XMLID_114_" class="st2">
	<path id="XMLID_96_" class="st6" d="M279.9,251.4c0,0,1-0.2,2.5-0.3c0.8-0.1,1.6-0.1,2.6-0.1c0.9,0,1.9,0,2.9,0.1
		c1,0,2,0.1,2.9,0.2c0.9,0.1,1.8,0.1,2.5,0.2c1.5,0.2,2.5,0.5,2.5,0.5s-1,0.4-2.5,0.7c-0.7,0.2-1.6,0.3-2.6,0.4c-1,0.1-2,0.1-3,0
		c-1-0.1-2-0.2-2.9-0.3c-0.9-0.1-1.8-0.3-2.5-0.5C280.8,251.9,279.9,251.4,279.9,251.4z"/>
</g>
<path id="XMLID_152_" class="st1" d="M338,338.5v1.4l0.1-2.6l0.1,0.7C338.3,338.2,338,338.3,338,338.5z"/>
<g id="XMLID_119_">
	<path id="XMLID_122_" class="st1" d="M207.5,367.7v-13.3l4.6-6.4h5.9l7.1-3.5h5l2.7-3.5h6.6l2,2.9h5.5l5,2.3h1.3v-13.9l-8.2-5.8
		h-3.5l-5.3,3.1l-3.3-3.1h-6l-3.3,4.5l-2.3,0.3l-2.3-3.2l-1.5,1.9l-4.3,4h-1.8l-4.3,7.7l-2.4,13l2,13.1
		C206.6,368.6,207.5,368.5,207.5,367.7z"/>
	<path id="XMLID_123_" class="st1" d="M304.5,367.7v-13.3l-4.6-6.4h-5.9l-7.1-3.5h-5l-2.7-3.5h-6.6l-2,2.9h-5.5l-5,2.3h-1.3v-13.9
		l8.2-5.8h3.5l5.3,3.1l3.3-3.1h6l3.3,4.5l2.3,0.3l2.3-3.2l1.5,1.9l4.3,4h1.8l4.3,7.7l2.4,13l-2,13.1
		C305.4,368.6,304.5,368.5,304.5,367.7z"/>
</g>
<polygon id="XMLID_149_" class="st1" points="338.7,337.3 337.8,335.7 338.3,335.2 "/>
<path id="XMLID_242_" class="st1" d="M343,321h-0.4c-0.5,0-0.6,0.1-0.6,0.5v6.2c0,0.1-0.1,0.2-0.1,0.2l-0.2,0.9l-1.7,5.7
	c-0.1,0.2-0.1,0.5,0,0.7l0.3,0.5l0.9,1.6l0.2,2.6l0.6,4.2c0,0,0,0,0,0l0.4-0.1c0,0-7,36.9-29.6,59.9h0.1l-17.9,19h-4l-5.2,4h-15.4
	l-3.4,4h-6.3c0,0-0.1,0-0.1,0l-3.9,2.5c0,0-0.1,0.1-0.1,0.1c-0.3,0.1-0.5,0-0.8-0.1l-3.9-2.4c-0.1,0-0.1,0-0.2,0h-6.1l-3.4-4h-15.4
	l-5.2-4h-4l-17.9-19h0.1c-13.1-14-21.1-31.6-25.5-44.3c-3.2-9.2-4.5-15.6-4.5-15.6l0.2-0.8l0.3-1.2l0.4-2l1.1-5
	c0.1-0.2,0.2-0.4,0.1-0.6l-1.8-6.7c0-0.1,0.1-0.1,0.1-0.2v-6.2c0-0.5-0.5-0.8-0.9-0.8c-0.2,0-0.6-0.1-0.7-0.2
	c-0.2-0.2-0.4-0.4-0.4-0.6V312c0-0.3,0.5,0,0.7,0h0c0.1,0,0.3-0.5,0.4-0.4l1.5,0c0.3,0,0.6,0.2,0.7,0.5c0,0,0,0,0,0l2.1,11
	c0,0.2,0.1,0.3,0.2,0.4l6.3,6c0.1,0.1,0.1,0.1,0.2,0.1l11.5,5.4c0.3,0.1,0.3,0.4,0.3,0.8v7.1c0,6.1,4.8,5.7,7,5.2
	c0.5-0.1,1,0.3,1,0.8v10.6c0,0.5,0.7,1.4,1.2,1.4h3.8c0.2,0,0.3-0.1,0.4-0.1c0.1,0,0.1,0,0.2,0.1l1.8,1.9l4.3,4.7
	c0.2,0.2,0.4,0.4,0.6,0.4h5c0.3,0,0.5-0.1,0.7,0.1l3.3,4.5l1.7,2.3l0.9,1.4c0.2,0.2,0.4,0.6,0.7,0.6h3.9c0.2,0,0.4-0.3,0.6-0.1
	l6.6,5.9c0.2,0.1,0.3,0.2,0.6,0.2h7.9c0.3,0,0.5-0.3,0.7-0.5l1.8-2.2c0.2-0.2,0.4-0.3,0.7-0.3h4.6c0.2,0,0.4-0.2,0.6-0.4l3.2-2.9
	c0.2-0.2,0.6-0.3,0.9-0.2c0.1,0,0.2,0.1,0.2,0.1l3.2,3c0.2,0.1,0.4,0.4,0.6,0.4h4.6c0.3,0,0.5,0,0.7,0.2l1.8,2.4
	c0.2,0.2,0.4,0.4,0.7,0.4h7.9c0.2,0,0.4-0.3,0.6-0.4l6.6-5.6c0.2-0.1,0.3,0,0.6,0h3.9c0.3,0,0.5-0.5,0.7-0.7l6-8
	c0.2-0.2,0.4-0.3,0.7-0.3h5c0.2,0,0.5-0.3,0.6-0.5l4-4.3l2-2.1l0.2-0.1c0.2-0.2,0.4,0,0.6,0h3.5c0.5,0,1.2-0.9,1.2-1.4V349
	c0-0.5,0.2-0.9,0.8-0.8c2.1,0.5,6.2,0.8,6.2-5.2v-7.1c0-0.3,0.3-0.6,0.6-0.8l12.1-5.4c0.1,0,0.2-0.1,0.2-0.1l6.6-6
	c0.1-0.1,0.2-0.3,0.3-0.5l0.5-2.6l1.6-8.4c0.1-0.4,0.4-0.6,0.7-0.7l1-0.2c0.5-0.1,0.5,0.3,0.5,0.8v7.8C343,320.3,343.5,321,343,321z
	"/>
<g id="XMLID_145_" class="st2">
	<path id="XMLID_94_" class="st3" d="M174.9,359.6c0,0-0.5-1.3-0.9-3.3c-0.1-0.5-0.2-1-0.4-1.6c-0.1-0.6-0.2-1.2-0.3-1.8
		c-0.2-1.2-0.4-2.6-0.4-3.9c-0.1-1.4-0.1-2.7,0.1-4c0-0.6,0.1-1.3,0.3-1.9c0.1-0.6,0.3-1.1,0.4-1.6c0.1-0.5,0.4-0.9,0.6-1.3
		c0.2-0.4,0.5-0.7,0.6-0.9c0.5-0.4,0.7-0.6,0.7-0.6s-0.1,0.3-0.4,0.8c-0.1,0.3-0.2,0.6-0.2,1c0,0.4-0.1,0.8-0.2,1.3
		c0,0.5-0.1,1-0.1,1.6c0,0.6,0,1.1,0,1.8c0,0.6,0.1,1.2,0.1,1.9c0,0.6,0.1,1.3,0.1,2c0.1,1.3,0.1,2.6,0.2,3.9
		c0.1,1.2,0.1,2.4,0.1,3.4C175.1,358.2,174.9,359.6,174.9,359.6z"/>
</g>
<g id="XMLID_142_" class="st2">
	<path id="XMLID_92_" class="st3" d="M177,359.2c0,0,0-0.1,0-0.2c0-0.1-0.1-0.4-0.1-0.7c-0.1-0.6-0.3-1.4-0.5-2.4
		c-0.2-1-0.4-2.2-0.5-3.4c-0.1-1.3-0.2-2.6-0.3-3.9c0-1.3,0-2.7,0.1-4c0.1-1.3,0.3-2.5,0.6-3.5c0.3-1,0.6-1.8,1-2.3
		c0.2-0.3,0.4-0.4,0.5-0.5c0.1-0.1,0.2-0.1,0.2-0.1s0,0.1-0.1,0.2c-0.1,0.1-0.2,0.3-0.2,0.6c-0.1,0.3-0.1,0.6-0.2,1
		c0,0.4-0.1,0.8-0.1,1.3c0,1,0,2.1,0.1,3.4c0,1.2,0.1,2.6,0.1,3.9c0,1.3,0,2.6,0,3.9c0,1.2,0,2.4-0.1,3.4c-0.1,1-0.2,1.9-0.3,2.4
		c0,0.3-0.1,0.5-0.2,0.7C177.1,359.2,177,359.2,177,359.2z"/>
</g>
<g id="XMLID_127_" class="st2">
	<path id="XMLID_90_" class="st3" d="M178.3,366.8c0,0-0.5-1.4-0.8-3.5c-0.2-1.1-0.3-2.3-0.4-3.6c0-0.7-0.1-1.4-0.1-2.1
		c0-0.7,0-1.4,0-2.1c0.1-1.4,0.2-2.9,0.4-4.2c0.1-0.7,0.2-1.3,0.4-1.9c0.1-0.6,0.3-1.2,0.5-1.7c0.2-0.5,0.4-1,0.6-1.4
		c0.2-0.4,0.4-0.7,0.6-1c0.4-0.5,0.6-0.8,0.6-0.8s-0.1,0.4-0.2,1c-0.1,0.3-0.1,0.7-0.2,1.1c-0.1,0.4-0.1,0.9-0.2,1.4
		c-0.1,1-0.2,2.2-0.3,3.5c-0.1,0.6-0.1,1.3-0.1,2c0,0.7,0,1.4-0.1,2.1c-0.1,1.4-0.1,2.8-0.2,4.1c0,1.3-0.1,2.5-0.2,3.6
		C178.5,365.4,178.3,366.8,178.3,366.8z"/>
</g>
<g id="XMLID_148_" class="st2">
	<path id="XMLID_88_" class="st3" d="M196.9,393.3c0,0-0.9-0.3-2.1-0.9c-1.2-0.6-2.7-1.6-4-2.8c-0.7-0.6-1.3-1.2-1.8-1.9
		c-0.5-0.7-1-1.4-1.2-2c-0.2-0.3-0.2-0.7-0.3-0.9c-0.1-0.3-0.1-0.6-0.1-0.8c0-0.4,0.1-0.6,0.1-0.6s0.1,0.2,0.3,0.5
		c0.1,0.1,0.2,0.3,0.4,0.5c0.2,0.2,0.4,0.4,0.6,0.6c0.5,0.4,1,0.9,1.6,1.4c0.6,0.5,1.2,1.1,1.9,1.6c1.3,1.1,2.5,2.3,3.4,3.4
		C196.4,392.5,196.9,393.3,196.9,393.3z"/>
</g>
<g id="XMLID_147_" class="st2">
	<path id="XMLID_86_" class="st3" d="M197.7,392.2c0,0,0-0.1-0.1-0.1c-0.1,0-0.2-0.1-0.4-0.2c-0.3-0.2-0.8-0.4-1.4-0.8
		c-1.1-0.7-2.6-1.7-3.8-2.9c-1.3-1.2-2.4-2.6-3-3.9c-0.3-0.6-0.5-1.2-0.5-1.6c0-0.2,0-0.4,0-0.5c0-0.1,0.1-0.2,0.1-0.2
		s0,0.1,0.1,0.2c0,0.1,0.1,0.2,0.2,0.4c0.2,0.3,0.6,0.7,1.1,1.1c1,0.8,2.2,1.9,3.5,3.1c1.2,1.2,2.4,2.4,3.2,3.5
		c0.4,0.5,0.7,1,0.9,1.4C197.6,392,197.7,392.2,197.7,392.2z"/>
</g>
<g id="XMLID_51_" class="st2">
	<path id="XMLID_84_" class="st3" d="M233.5,409.6c0,0-0.9-0.3-2.1-0.9c-1.2-0.6-2.7-1.6-4-2.8c-0.7-0.6-1.3-1.2-1.8-1.9
		c-0.5-0.7-1-1.4-1.2-2c-0.2-0.3-0.2-0.7-0.3-0.9c-0.1-0.3-0.1-0.6-0.1-0.8c0-0.4,0.1-0.6,0.1-0.6s0.1,0.2,0.3,0.5
		c0.1,0.1,0.2,0.3,0.4,0.5c0.2,0.2,0.4,0.4,0.6,0.6c0.5,0.4,1,0.9,1.6,1.4c0.6,0.5,1.2,1.1,1.9,1.6c1.3,1.1,2.5,2.3,3.4,3.4
		C233,408.8,233.5,409.6,233.5,409.6z"/>
</g>
<g id="XMLID_46_" class="st2">
	<path id="XMLID_81_" class="st3" d="M234.3,408.5c0,0,0-0.1-0.1-0.1c-0.1,0-0.2-0.1-0.4-0.2c-0.3-0.2-0.8-0.4-1.4-0.8
		c-1.1-0.7-2.6-1.7-3.8-2.9c-1.3-1.2-2.4-2.6-3-3.9c-0.3-0.6-0.5-1.2-0.5-1.6c0-0.2,0-0.4,0-0.5c0-0.1,0.1-0.2,0.1-0.2
		s0,0.1,0.1,0.2c0,0.1,0.1,0.2,0.2,0.4c0.2,0.3,0.6,0.7,1.1,1.1c1,0.8,2.2,1.9,3.5,3.1c1.2,1.2,2.4,2.4,3.2,3.5
		c0.4,0.5,0.7,1,0.9,1.4C234.2,408.2,234.3,408.5,234.3,408.5z"/>
</g>
<g id="XMLID_146_" class="st2">
	<path id="XMLID_79_" class="st3" d="M201.8,395.1c0,0-0.9-0.3-2.1-1.1c-1.2-0.7-2.7-1.9-4-3.3c-0.6-0.7-1.2-1.4-1.7-2.2
		c-0.5-0.7-0.9-1.5-1.2-2.2c-0.2-0.3-0.2-0.7-0.3-0.9c-0.1-0.3-0.1-0.5-0.2-0.8c0-0.4,0-0.7,0-0.7s0.2,0.2,0.4,0.5
		c0.2,0.3,0.6,0.7,1.1,1.2c0.9,1,2.2,2.3,3.4,3.6c1.2,1.3,2.4,2.7,3.3,3.8C201.3,394.3,201.8,395.1,201.8,395.1z"/>
</g>
<g id="XMLID_154_" class="st2">
	<path id="XMLID_77_" class="st3" d="M294,385.2c0,0,0.1-0.3,0.2-0.9c0.2-0.5,0.4-1.3,0.8-2.2c0.4-0.9,0.9-1.9,1.5-3
		c0.6-1.1,1.3-2.1,2-3.2c0.4-0.5,0.8-1,1.2-1.5c0.4-0.5,0.9-0.9,1.4-1.4c0.4-0.4,1-0.8,1.5-1.1c0.5-0.3,0.9-0.5,1.3-0.8
		c1.7-0.9,2.9-1.4,2.9-1.4s-0.8,1-2.2,2.4c-0.3,0.3-0.7,0.7-1.1,1.1c-0.4,0.4-0.7,0.7-1.1,1.2c-0.4,0.4-0.7,0.9-1.1,1.4
		c-0.4,0.5-0.7,1-1.1,1.5c-0.7,1-1.5,2-2.2,2.9c-0.7,0.9-1.4,1.8-1.9,2.6c-0.6,0.8-1.1,1.4-1.4,1.8C294.2,385,294,385.2,294,385.2z"
		/>
</g>
<g id="XMLID_159_" class="st2">
	<path id="XMLID_75_" class="st3" d="M261.4,388.6c0,0-0.3,0-0.8,0c-0.5,0-1.2,0.1-2.1,0.1c-1.7,0-4,0-6.3,0c-2.3,0-4.6-0.1-6.3-0.1
		c-0.9,0-1.6,0-2.1,0c-0.5,0-0.8,0-0.8,0s0.3-0.1,0.8-0.2c0.5-0.1,1.2-0.2,2.1-0.4c0.9-0.1,1.9-0.2,3-0.3c1.1-0.1,2.2-0.1,3.4-0.1
		c2.3,0,4.6,0.2,6.3,0.4c0.9,0.1,1.6,0.2,2.1,0.3C261.2,388.5,261.4,388.6,261.4,388.6z"/>
</g>
<g id="XMLID_158_" class="st2">
	<path id="XMLID_73_" class="st3" d="M265.1,399.6c0,0-0.1,0-0.1-0.1c-0.1,0-0.2-0.1-0.4-0.2c-0.3-0.3-0.7-0.7-1.2-1.2
		c-0.9-1-1.9-2.4-3.1-3.7c-0.3-0.3-0.6-0.7-0.9-0.9c-0.3-0.3-0.6-0.6-0.9-0.9c-0.3-0.3-0.6-0.5-0.9-0.7c-0.3-0.2-0.6-0.4-0.9-0.6
		c-0.3-0.2-0.6-0.3-0.8-0.4c-0.2-0.1-0.5-0.2-0.6-0.3c-0.4-0.1-0.6-0.2-0.6-0.2s0.2,0,0.6,0c0.2,0,0.5,0,0.7,0.1
		c0.3,0.1,0.6,0.1,0.9,0.2c0.3,0.1,0.7,0.3,1,0.5c0.3,0.2,0.7,0.4,1.1,0.7c0.3,0.3,0.7,0.5,1,0.9c0.3,0.3,0.6,0.6,1,1
		c0.6,0.7,1.1,1.4,1.6,2.1c0.5,0.7,0.9,1.4,1.2,2c0.3,0.6,0.6,1.1,0.8,1.4c0.1,0.2,0.2,0.3,0.3,0.3
		C265,399.6,265.1,399.6,265.1,399.6z"/>
</g>
<g id="XMLID_157_" class="st2">
	<path id="XMLID_71_" class="st3" d="M258.7,397.1c0,0-0.2-0.1-0.5-0.3c-0.3-0.2-0.7-0.5-1.2-0.9c-0.5-0.4-1-0.8-1.7-1.2
		c-0.6-0.4-1.3-0.8-2.1-1c-0.3-0.2-0.7-0.3-1.1-0.4c-0.4-0.1-0.7-0.2-1.1-0.3c-0.4-0.1-0.7-0.2-1-0.3c-0.3-0.1-0.7-0.1-0.9-0.2
		c-0.6-0.1-1.1-0.2-1.4-0.3c-0.4-0.1-0.6-0.1-0.6-0.1s0.2,0,0.6-0.1c0.4,0,0.9-0.1,1.5-0.1c0.3,0,0.7,0,1,0c0.4,0,0.7,0.1,1.1,0.1
		c0.4,0.1,0.8,0.2,1.2,0.3c0.4,0.1,0.8,0.2,1.2,0.4c0.4,0.2,0.8,0.4,1.1,0.6c0.4,0.2,0.7,0.4,1,0.7c0.6,0.5,1.2,1,1.6,1.5
		c0.4,0.5,0.7,0.9,0.9,1.2C258.5,397,258.7,397.1,258.7,397.1z"/>
</g>
<g id="XMLID_180_" class="st2">
	<path id="XMLID_69_" class="st3" d="M334.7,357.4c0,0,0-0.3,0-0.8c0-0.5-0.1-1.2-0.1-2.1c0-1.7,0-4,0-6.3c0-2.3,0.1-4.6,0.1-6.3
		c0-0.9,0-1.6,0-2.1c0-0.5,0-0.8,0-0.8s0.1,0.3,0.2,0.8c0.1,0.5,0.2,1.2,0.4,2.1c0.1,0.9,0.2,1.9,0.3,3c0.1,1.1,0.1,2.2,0.1,3.4
		c0,2.3-0.2,4.6-0.4,6.3c-0.1,0.9-0.2,1.6-0.3,2.1C334.8,357.1,334.7,357.4,334.7,357.4z"/>
</g>
<g id="XMLID_179_" class="st2">
	<path id="XMLID_67_" class="st3" d="M323.7,361c0,0,0-0.1,0.1-0.1c0-0.1,0.1-0.2,0.2-0.4c0.3-0.3,0.7-0.7,1.2-1.2
		c1-0.9,2.4-1.9,3.7-3.1c0.3-0.3,0.7-0.6,0.9-0.9c0.3-0.3,0.6-0.6,0.9-0.9c0.3-0.3,0.5-0.6,0.7-0.9c0.2-0.3,0.4-0.6,0.6-0.9
		c0.2-0.3,0.3-0.6,0.4-0.8c0.1-0.2,0.2-0.5,0.3-0.6c0.1-0.4,0.2-0.6,0.2-0.6s0,0.2,0,0.6c0,0.2,0,0.5-0.1,0.7
		c-0.1,0.3-0.1,0.6-0.2,0.9c-0.1,0.3-0.3,0.7-0.5,1c-0.2,0.3-0.4,0.7-0.7,1.1c-0.3,0.3-0.5,0.7-0.9,1c-0.3,0.3-0.6,0.6-1,1
		c-0.7,0.6-1.4,1.1-2.1,1.6c-0.7,0.5-1.4,0.9-2,1.2c-0.6,0.3-1.1,0.6-1.4,0.8c-0.2,0.1-0.3,0.2-0.3,0.3
		C323.7,361,323.7,361,323.7,361z"/>
</g>
<g id="XMLID_160_" class="st2">
	<path id="XMLID_65_" class="st3" d="M326.2,354.6c0,0,0.1-0.2,0.3-0.5c0.2-0.3,0.5-0.7,0.9-1.2c0.4-0.5,0.8-1,1.2-1.7
		c0.4-0.6,0.8-1.3,1-2.1c0.2-0.3,0.3-0.7,0.4-1.1c0.1-0.4,0.2-0.7,0.3-1.1c0.1-0.4,0.2-0.7,0.3-1c0.1-0.3,0.1-0.7,0.2-0.9
		c0.1-0.6,0.2-1.1,0.3-1.4c0.1-0.4,0.1-0.6,0.1-0.6s0,0.2,0.1,0.6c0,0.4,0.1,0.9,0.1,1.5c0,0.3,0,0.7,0,1c0,0.4-0.1,0.7-0.1,1.1
		c-0.1,0.4-0.2,0.8-0.3,1.2c-0.1,0.4-0.2,0.8-0.4,1.2c-0.2,0.4-0.4,0.8-0.6,1.1c-0.2,0.4-0.4,0.7-0.7,1c-0.5,0.6-1,1.2-1.5,1.6
		c-0.5,0.4-0.9,0.7-1.2,0.9C326.3,354.4,326.2,354.6,326.2,354.6z"/>
</g>
<g id="XMLID_153_" class="st2">
	<path id="XMLID_63_" class="st3" d="M307.3,366.7c0,0-1,1-2.5,2.4c-0.4,0.3-0.8,0.7-1.2,1.1c-0.4,0.4-0.9,0.8-1.4,1.2
		c-0.9,0.9-1.9,1.8-2.9,2.7c-0.5,0.5-1,0.9-1.4,1.4c-0.4,0.5-0.9,0.9-1.2,1.4c-0.3,0.4-0.7,1-1.1,1.4c-0.3,0.5-0.7,0.9-1,1.3
		c-0.6,0.8-1.1,1.5-1.4,2c-0.2,0.3-0.3,0.4-0.4,0.6c-0.1,0.1-0.1,0.2-0.1,0.2s0-0.4,0.1-1c0.1-0.6,0.4-1.4,0.8-2.4
		c0.2-0.5,0.4-1,0.7-1.5c0.3-0.5,0.5-1.1,0.9-1.7c0.2-0.3,0.4-0.6,0.6-0.9c0.2-0.3,0.4-0.6,0.7-0.8c0.4-0.5,1-1,1.5-1.5
		c0.5-0.5,1-0.9,1.6-1.4c0.5-0.4,1.1-0.8,1.6-1.2c1.1-0.8,2.1-1.4,3-1.9C306,367.2,307.3,366.7,307.3,366.7z"/>
</g>
<g id="XMLID_156_" class="st2">
	<path id="XMLID_61_" class="st3" d="M286.2,414.4c0,0,0.2-0.2,0.7-0.6c0.4-0.4,1-0.9,1.8-1.4c0.8-0.6,1.6-1.3,2.6-1.9
		c0.9-0.7,1.9-1.4,2.9-2.2c0.5-0.4,1-0.7,1.5-1.1c0.5-0.4,0.9-0.7,1.4-1.1c0.4-0.4,0.8-0.7,1.2-1.1c0.4-0.4,0.7-0.8,1.1-1.1
		c1.3-1.4,2.4-2.2,2.4-2.2s-0.5,1.2-1.4,2.9c-0.2,0.4-0.5,0.9-0.8,1.3c-0.3,0.5-0.7,1-1.1,1.5c-0.4,0.5-0.9,0.9-1.4,1.4
		c-0.5,0.4-1,0.8-1.5,1.2c-1,0.8-2.1,1.5-3.2,2c-1.1,0.6-2.1,1.1-3,1.5c-0.9,0.4-1.7,0.6-2.2,0.8
		C286.5,414.3,286.2,414.4,286.2,414.4z"/>
</g>
<g id="XMLID_155_" class="st2">
	<path id="XMLID_59_" class="st3" d="M304.7,401.1c0,0-0.5,1.3-1.5,3.1c-0.5,0.9-1.1,1.9-1.9,3c-0.4,0.5-0.8,1.1-1.2,1.6
		c-0.4,0.5-0.9,1.1-1.4,1.6c-0.5,0.5-1,1-1.5,1.5c-0.3,0.2-0.5,0.5-0.8,0.7c-0.3,0.2-0.6,0.4-0.9,0.6c-0.6,0.4-1.1,0.6-1.7,0.9
		c-0.5,0.3-1.1,0.5-1.5,0.7c-1,0.4-1.8,0.6-2.4,0.8c-0.6,0.1-1,0.1-1,0.1s0.1,0,0.2-0.1c0.1-0.1,0.3-0.2,0.6-0.4
		c0.5-0.3,1.2-0.8,2-1.4c0.4-0.3,0.9-0.6,1.3-1c0.5-0.3,1-0.7,1.4-1.1c0.5-0.3,0.9-0.8,1.4-1.2c0.5-0.4,0.9-0.9,1.4-1.4
		c0.9-1,1.8-2,2.7-2.9c0.4-0.5,0.8-0.9,1.2-1.4c0.4-0.4,0.8-0.8,1.1-1.2C303.7,402.1,304.7,401.1,304.7,401.1z"/>
</g>
<path id="XMLID_185_" class="st1" d="M236.1,333.2c0,0,5.5-2.4,12.4-2.4s-7.7-2.1,3.8-2.1c11.5,0,0.8,17.1,0.8,17.1
	s-15.3,3.4-10.9,0s-4.8,0.1-2.3-1.8s-6.2,3-2.3,0c4-3-4.8-1.2-3.2-2.4C235.9,340.5,236.1,333.2,236.1,333.2z"/>
<path id="XMLID_186_" class="st1" d="M276.6,333.2c0,0-5.5-2.4-12.4-2.4s7.7-2.1-3.8-2.1c-11.5,0-0.8,17.1-0.8,17.1s15.3,3.4,10.9,0
	s4.8,0.1,2.3-1.8s6.2,3,2.3,0c-4-3,4.8-1.2,3.2-2.4S276.6,333.2,276.6,333.2z"/>
<path id="XMLID_213_" class="st1" d="M264,368.9c-2,0,2,0.9,0,0.9s3,0.7,0,0.7c-2,0,3,0.9,0,0.9c-1,0-1.3,0.5-1.5,0.9
	c0-0.2-0.2-0.2-0.3,0.1c-0.1,0.2-0.3,0.3-0.3,0.4c0,0,0,0,0,0c0,0.2,0.1,0.4-0.3,0.2c-1.2-0.7-1.4,1.9-1.4,1s-0.3,0.3-0.7,0
	c-0.5-0.3,0.2,1.2-0.9,0.5c-1-0.6-1,2-1,0.6c0-1.3,0.1,0.6-0.9,0c-1-0.6,0.5,0.8-0.8,0c-1.3,0.8,0.2-0.6-0.8,0c-1,0.6-0.8-1.3-0.8,0
	c0,1.3,0-1.2-1.1-0.6c-1,0.6-0.4-0.8-0.9-0.5c-0.5,0.3-0.8-0.9-0.8,0s-0.1-1.7-1.2-1c-0.4,0.2-0.3,0-0.3-0.2c0,0,0,0,0,0
	c0-0.1-0.4-0.2-0.5-0.3c0-0.4-0.4-0.3-0.3-0.1c-0.2-0.4-0.2-1-2.2-1s3-0.9,0-0.9c-2,0,3-0.7,0-0.7c-2,0,3-0.9,0-0.9
	c-2,0,3-0.9,0-0.9s-2.7-0.5-2.7-0.5l5.7-3.4c0,0,0.4,0.1,0.4-1.1c0-1.2,1.3,3,1.3,1s1.6,2,1.6,0s1.1,2,1.1,0s1.6,0,1.6,0
	s1.7-2,1.7,0s1.1-2,1.1,0s1.6-2,1.6,0s1.2-2.2,1.2-1c0,1.2,0.4,1.3,0.4,1.3l5.3,3.3c0,0-0.2,0.4-3.2,0.4
	C262,368,266,368.9,264,368.9z"/>
<path id="XMLID_191_" class="st1" d="M169.4,343.4c0,0-1.4-11.3-1.4-25.1l8,13.6L169.4,343.4z"/>
<path id="XMLID_228_" class="st1" d="M344.1,316.3c0,0.4,0,0.8,0,1.2c0,3.8-0.5,7.7-0.7,11.2c-0.4,8.2-1.5,14.7-1.5,15.5
	c0,0,0,0,0,0c0,0.1,0.3,0.1,0.3,0.1l-4.2-8.9l0-0.1l-0.7-1.4l-0.9-1.9l6.1-12.8l0.7-1.5L344.1,316.3z"/>
<g id="XMLID_193_">
	
		<radialGradient id="XMLID_52_" cx="214.513" cy="280.5772" r="25.4182" gradientTransform="matrix(1.0574 0 0 1 -14.4766 0)" gradientUnits="userSpaceOnUse">
		<stop  offset="2.043588e-007" style="stop-color:#FFFFFF;stop-opacity:0.1"/>
		<stop  offset="0.139" style="stop-color:#FBFBFB;stop-opacity:9.304848e-002"/>
		<stop  offset="0.2664" style="stop-color:#F0F0F0;stop-opacity:8.668003e-002"/>
		<stop  offset="0.3893" style="stop-color:#DEDEDE;stop-opacity:8.053717e-002"/>
		<stop  offset="0.5093" style="stop-color:#C3C3C3;stop-opacity:7.453521e-002"/>
		<stop  offset="0.6274" style="stop-color:#A2A2A2;stop-opacity:6.862859e-002"/>
		<stop  offset="0.744" style="stop-color:#787878;stop-opacity:6.280029e-002"/>
		<stop  offset="0.8593" style="stop-color:#474747;stop-opacity:5.703336e-002"/>
		<stop  offset="0.971" style="stop-color:#101010;stop-opacity:5.145115e-002"/>
		<stop  offset="1" style="stop-color:#000000;stop-opacity:5.000000e-002"/>
	</radialGradient>
	<linearGradient id="XMLID_57_" gradientUnits="userSpaceOnUse" x1="212.3595" y1="305.8608" x2="212.3595" y2="255.2937">
		<stop  offset="0" style="stop-color:#FFFFFF;stop-opacity:0"/>
		<stop  offset="0.1577" style="stop-color:#FCFCFC;stop-opacity:0.2261"/>
		<stop  offset="0.2526" style="stop-color:#F4F4F4;stop-opacity:0.3623"/>
		<stop  offset="0.331" style="stop-color:#E6E6E6;stop-opacity:0.4747"/>
		<stop  offset="0.4003" style="stop-color:#D1D1D1;stop-opacity:0.5741"/>
		<stop  offset="0.4637" style="stop-color:#B7B7B7;stop-opacity:0.6651"/>
		<stop  offset="0.5228" style="stop-color:#979797;stop-opacity:0.7498"/>
		<stop  offset="0.5785" style="stop-color:#707070;stop-opacity:0.8296"/>
		<stop  offset="0.6315" style="stop-color:#434343;stop-opacity:0.9057"/>
		<stop  offset="0.6807" style="stop-color:#121212;stop-opacity:0.9762"/>
		<stop  offset="0.6973" style="stop-color:#000000"/>
	</linearGradient>
	<path id="XMLID_48_" class="st7" d="M223.5,300.9h-22.2c-11.2,0-20.3-9.1-20.3-20.3v0c0-11.2,9.1-20.3,20.3-20.3h22.2
		c11.2,0,20.3,9.1,20.3,20.3v0C243.7,291.7,234.6,300.9,223.5,300.9z"/>
	
		<radialGradient id="XMLID_115_" cx="297.0544" cy="280.5772" r="25.4182" gradientTransform="matrix(1.0574 0 0 1 -14.4766 0)" gradientUnits="userSpaceOnUse">
		<stop  offset="2.043588e-007" style="stop-color:#FFFFFF;stop-opacity:0.1"/>
		<stop  offset="0.139" style="stop-color:#FBFBFB;stop-opacity:9.304848e-002"/>
		<stop  offset="0.2664" style="stop-color:#F0F0F0;stop-opacity:8.668003e-002"/>
		<stop  offset="0.3893" style="stop-color:#DEDEDE;stop-opacity:8.053717e-002"/>
		<stop  offset="0.5093" style="stop-color:#C3C3C3;stop-opacity:7.453521e-002"/>
		<stop  offset="0.6274" style="stop-color:#A2A2A2;stop-opacity:6.862859e-002"/>
		<stop  offset="0.744" style="stop-color:#787878;stop-opacity:6.280029e-002"/>
		<stop  offset="0.8593" style="stop-color:#474747;stop-opacity:5.703336e-002"/>
		<stop  offset="0.971" style="stop-color:#101010;stop-opacity:5.145115e-002"/>
		<stop  offset="1" style="stop-color:#000000;stop-opacity:5.000000e-002"/>
	</radialGradient>
	<linearGradient id="XMLID_120_" gradientUnits="userSpaceOnUse" x1="299.6426" y1="305.8608" x2="299.6426" y2="255.2937">
		<stop  offset="0" style="stop-color:#FFFFFF;stop-opacity:0"/>
		<stop  offset="0.1577" style="stop-color:#FCFCFC;stop-opacity:0.2261"/>
		<stop  offset="0.2526" style="stop-color:#F4F4F4;stop-opacity:0.3623"/>
		<stop  offset="0.331" style="stop-color:#E6E6E6;stop-opacity:0.4747"/>
		<stop  offset="0.4003" style="stop-color:#D1D1D1;stop-opacity:0.5741"/>
		<stop  offset="0.4637" style="stop-color:#B7B7B7;stop-opacity:0.6651"/>
		<stop  offset="0.5228" style="stop-color:#979797;stop-opacity:0.7498"/>
		<stop  offset="0.5785" style="stop-color:#707070;stop-opacity:0.8296"/>
		<stop  offset="0.6315" style="stop-color:#434343;stop-opacity:0.9057"/>
		<stop  offset="0.6807" style="stop-color:#121212;stop-opacity:0.9762"/>
		<stop  offset="0.6973" style="stop-color:#000000"/>
	</linearGradient>
	<path id="XMLID_112_" class="st8" d="M310.7,300.9h-22.2c-11.2,0-20.3-9.1-20.3-20.3v0c0-11.2,9.1-20.3,20.3-20.3h22.2
		c11.2,0,20.3,9.1,20.3,20.3v0C331,291.7,321.9,300.9,310.7,300.9z"/>
</g>
<linearGradient id="XMLID_121_" gradientUnits="userSpaceOnUse" x1="255.5" y1="275" x2="255.5" y2="265">
	<stop  offset="0" style="stop-color:#FFFFFF;stop-opacity:0"/>
	<stop  offset="0.1577" style="stop-color:#FCFCFC;stop-opacity:0.2261"/>
	<stop  offset="0.2526" style="stop-color:#F4F4F4;stop-opacity:0.3623"/>
	<stop  offset="0.331" style="stop-color:#E6E6E6;stop-opacity:0.4747"/>
	<stop  offset="0.4003" style="stop-color:#D1D1D1;stop-opacity:0.5741"/>
	<stop  offset="0.4637" style="stop-color:#B7B7B7;stop-opacity:0.6651"/>
	<stop  offset="0.5228" style="stop-color:#979797;stop-opacity:0.7498"/>
	<stop  offset="0.5785" style="stop-color:#707070;stop-opacity:0.8296"/>
	<stop  offset="0.6315" style="stop-color:#434343;stop-opacity:0.9057"/>
	<stop  offset="0.6807" style="stop-color:#121212;stop-opacity:0.9762"/>
	<stop  offset="0.6973" style="stop-color:#000000"/>
</linearGradient>
<line id="XMLID_47_" class="st9" x1="243" y1="270" x2="268" y2="270"/>
<line id="XMLID_49_" class="st10" x1="181" y1="270.1" x2="155.3" y2="250.8"/>
<line id="XMLID_50_" class="st10" x1="331" y1="270.1" x2="355.6" y2="255"/>
<path id="XMLID_264_" class="st1" d="M386.6,190.9l-6.7,0.4c-4.3,0.3-8.3,2.3-11.1,5.6l-5.7,6.8l4,7.5c1.4,2.6,2.1,5.5,2,8.5
	l-0.1,4.2l-3.2-3.1l-2.9,6.7v18.9c0,0,0.3,0.1,0.3,0.1c0.2,0.3,0.5,0.5,0.6,0.8c0.8,1.4,1.2,3,1.2,4.7l-2.8,23.7l-1.4,16.7l-9,22.7
	v3.1c0,2.2-0.7,4.3-2.3,5.8l-2.2,2.3c-1,1.1-2.7,1.8-4.1,2.1c-0.4,8.2-1.4,14.7-1.4,15.5c0,0,0,0,0,0l0.4-0.1c0,0-7,36.9-29.6,59.9
	h0.1l-17.9,19h-4l-5.2,4h-15.4l-3.4,4h-6.3c0,0-0.1,0-0.1,0l-4.1,2.5c0,0-0.4,0.1-0.4,0.1V81c3.7,1,7.1,2.2,10.5,3.7
	c1.6,0.7,3.3,1.7,4.5,3c1.3,1.2,2.4,2.7,3.2,4.3c0.5,1,1.2,1.7,2.1,2.2c0.9,0.5,1.9,0.8,3,0.8h6c0-1-0.3-2.9-0.8-4.2
	c-0.5-1.3-1.4-2.5-2.4-3.6l-1.9-1.9l3.1,1.3c5.1,2,8.9,6.1,10.9,11.2v2.4c0,3.9,3.4,7.1,7.3,7.1c0-1.4-0.3-2.7-1-3.9
	c-0.7-1.1-1.7-2.1-3-2.7l-0.3-0.1c3.2,0,6.3,0.6,9.2,1.8c2.9,1.2,5.5,2.9,7.8,5.2l1,1c5.3,0,10.6,1.1,15.4,3c4.8,2,9.3,4.9,13.1,8.7
	l4,4c5.4,5.4,8.4,12.7,8.4,20.3l-11.7-10.6c-2.8-2.5-7.2-1.3-8.3,2.3l-0.4,1.4l6.5,2.5c11.3,4.4,20.7,12.7,26.4,23.4l3.4,6.4
	l-0.4-0.4l-0.8,0.6c4.6,4.2,8.7,8.9,12.3,13.9l-4.3-1.6c-3.5-1.3-7.5-0.6-10.2,2l-5.8,5.3l0.4-0.2
	C370.6,186.2,379.4,186.7,386.6,190.9z"/>
</svg>
