<?xml version="1.0" encoding="utf-8"?>
<!-- Generator: Adobe Illustrator 19.0.0, SVG Export Plug-In . SVG Version: 6.00 Build 0)  -->
<svg version="1.1" id="Layer_1" xmlns="http://www.w3.org/2000/svg" xmlns:xlink="http://www.w3.org/1999/xlink" x="0px" y="0px"
	 viewBox="0 0 512 512" style="enable-background:new 0 0 512 512;" xml:space="preserve">
<style type="text/css">
	.st0{fill:#9F4EA6;}
</style>
<path id="XMLID_52_" class="st0" d="M-1345.7-1267.7c-132.6,0-240,107.5-240,240s107.4,240,240,240s240-107.5,240-240
	S-1213.1-1267.7-1345.7-1267.7z M-1418-898h-55v-175h55V-898z M-1444.8-1095.5c-17.3,0-31.3-14-31.3-31.3c0-17.3,14-31.3,31.3-31.3
	c17.3,0,31.3,14,31.3,31.3C-1413.5-1109.5-1427.5-1095.5-1444.8-1095.5z M-1216-898h-55v-98.9c0,0,0.4-0.2,0.4-0.4
	c0.1-3.7-0.2-30.7-27.4-30.7c-29.2,0-32.1,22.2-32.1,36.8v93.2h-55v-175h55v23.4c0,0,14.5-26.8,49.3-26.8
	c34.7,0,64.7,16.9,64.7,79.1V-898z M-1270.2-996.9c0,0,0-0.2,0-0.4h0V-996.9z"/>
<path id="XMLID_23_" class="st0" d="M-802-332c-132.5,0-240,107.5-240,240s107.5,240,240,240S-562,40.5-562-92S-669.5-332-802-332z
	 M-680-155.3C-680-155.3-680-155.3-680-155.3c-0.2,0.1-0.3,0.1-0.3,0.2C-680.3-155.2-680.2-155.2-680-155.3v2.5
	c0,0,1.5,42.5-19.1,85.5c0,0,0-0.1,0-0.1c0,0,0,0,0,0c0,0,0,0.1-0.1,0.1c-6.5,12.1-13.4,22.7-20.7,32.2
	C-808,79.9-946.5,14.4-954,4.7c0.1,0,0.2,0,0.3,0c2.8,0.6,28.3,5.3,61.7-8.9c0,0,0,0,0,0c1.8-0.8,3.6-1.6,5.5-2.5c0,0,0,0,0,0
	c2.3-1.1,4.6-2.3,6.9-3.5c0.1,0,0.1-0.1,0.2-0.1c0.9-0.5,1.8-1,2.8-1.5c0,0,0,0,0,0c1.4-0.8,2.9-1.7,4.3-2.6l0,0
	c1-0.6,1.9-1.2,2.9-1.8c1-0.6,2-0.7,3-1.4c1.4-1,2.9-1.4,4.3-2.4h0c0,0,0-0.5,0-0.5c0,0,0-0.3,0-0.3c-4.4-0.2-42.5-3-57.8-43.2
	c0,0,20.5,0.3,27.6-1.9c0,0-49.5-12.2-49.5-62c0,0,18,8.6,28.5,7.5c0,0-48-28.8-19.3-83.2c0,0,45.9,62.4,128.1,64
	c-0.9-4.3-1.4-8.8-1.4-13.4c0-34.8,28.2-63,63-63c18.3,0,34.7,7.8,46.2,20.2c0.7-0.1,28.6-5,37.8-14.2c0,0-4.3,19.4-26,32.4l0.6,1.5
	c0,0,31.7-6.9,34.7-9.9C-649.7-186-665.6-161.8-680-155.3z"/>
<g id="XMLID_28_">
	<path id="XMLID_37_" class="st0" d="M863.5,286.5c0,0.3,0,0.4,0,0.4L863.5,286.5L863.5,286.5z"/>
	<path id="XMLID_36_" class="st0" d="M863.5,286.5c0,0.3,0,0.4,0,0.4L863.5,286.5L863.5,286.5z"/>
</g>
<path id="XMLID_213_" class="st0" d="M307.7,256c0,28.5-23.1,51.7-51.7,51.7s-51.7-23.1-51.7-51.7c0-28.5,23.1-51.7,51.7-51.7
	S307.7,227.5,307.7,256z"/>
<path id="XMLID_216_" class="st0" d="M319.5,128h-127c-35.5,0-64.5,29-64.5,64.5v127c0,35.5,29,64.5,64.5,64.5h127
	c35.5,0,64.5-29,64.5-64.5v-127C384,157,355,128,319.5,128z M256,335.3c-43.8,0-79.3-35.5-79.3-79.3s35.5-79.3,79.3-79.3
	s79.3,35.5,79.3,79.3S299.8,335.3,256,335.3z M338.9,192.4c-10.5,0-18.9-8.5-18.9-18.9c0-10.5,8.5-18.9,18.9-18.9
	s18.9,8.5,18.9,18.9C357.9,183.9,349.4,192.4,338.9,192.4z"/>
<path id="XMLID_228_" class="st0" d="M256,16C123.5,16,16,123.5,16,256s107.5,240,240,240s240-107.5,240-240S388.5,16,256,16z
	 M411,322c0,49-40,89-89,89H190c-49,0-89-40-89-89V190c0-49,40-89,89-89h132c49,0,89,40,89,89V322z"/>
</svg>
