<?xml version="1.0" encoding="utf-8"?>
<!-- Generator: Adobe Illustrator 19.0.0, SVG Export Plug-In . SVG Version: 6.00 Build 0)  -->
<svg version="1.1" id="Layer_1" xmlns="http://www.w3.org/2000/svg" xmlns:xlink="http://www.w3.org/1999/xlink" x="0px" y="0px"
	 viewBox="0 0 512 512" style="enable-background:new 0 0 512 512;" xml:space="preserve">
<style type="text/css">
	.st0{fill:#9F4EA6;}
	.st1{fill:#FFFFFF;}
</style>
<path id="XMLID_52_" class="st0" d="M331.5,286.5v0.4C331.5,286.9,331.5,286.7,331.5,286.5L331.5,286.5z M331.5,286.5v0.4
	C331.5,286.9,331.5,286.7,331.5,286.5L331.5,286.5z M331.5,286.5v0.4C331.5,286.9,331.5,286.7,331.5,286.5L331.5,286.5z"/>
<path id="XMLID_217_" class="st0" d="M256,16C123.5,16,16,123.5,16,256s107.5,240,240,240s240-107.5,240-240S388.5,16,256,16z
	 M184,386h-55V211h55V386z M156.9,188.2c-17.3,0-31.3-14-31.3-31.3c0-17.3,14-31.3,31.3-31.3c17.3,0,31.3,14,31.3,31.3
	C188.2,174.2,174.2,188.2,156.9,188.2z M386,386h-55v-99.1c0,0,0.3-0.2,0.3-0.4c0.1-3.7-0.1-30.7-27.3-30.7c-29.2,0-32,22.2-32,36.8
	V386h-55V211h55v23.1c0,0,14.5-26.8,49.3-26.8c34.7,0,64.7,16.9,64.7,79.1V386z"/>
<path id="XMLID_13_" d="M195.9,326.9L195.9,326.9c-0.1-0.1-0.1-0.1-0.1-0.1C195.8,326.8,195.8,326.8,195.9,326.9z"/>
<path id="XMLID_12_" class="st1" d="M338.1,312.2c7.3-9.5,14.2-20.1,20.7-32.2C353.5,291,346.7,301.9,338.1,312.2z"/>
<path id="XMLID_15_" class="st1" d="M358.8,280c0,0,0-0.1,0.1-0.1C358.8,279.9,358.8,280,358.8,280L358.8,280z"/>
<path id="XMLID_16_" class="st1" d="M358.9,280L358.9,280C358.9,280,358.9,279.9,358.9,280C358.9,279.9,358.9,280,358.9,280z"/>
<path id="XMLID_10_" d="M195.9,326.9L195.9,326.9c-0.1-0.1-0.1-0.1-0.1-0.1C195.8,326.8,195.8,326.8,195.9,326.9z"/>
<path id="XMLID_24_" class="st1" d="M166,343.2c1.8-0.8,3.6-1.6,5.5-2.5C169.6,341.6,167.8,342.4,166,343.2z"/>
<path id="XMLID_25_" class="st1" d="M171.5,340.7c2.3-1.1,4.6-2.3,6.9-3.5C176.1,338.5,173.8,339.6,171.5,340.7z"/>
<path id="XMLID_26_" class="st1" d="M181.4,335.5c1.4-0.8,2.9-1.7,4.3-2.6C184.2,333.9,182.8,334.7,181.4,335.5z"/>
<path id="XMLID_29_" class="st1" d="M358.9,280L358.9,280l-0.1,0h0c0,0,0-0.1,0.1-0.1C358.9,279.9,358.9,279.9,358.9,280
	C358.9,279.9,358.9,280,358.9,280z"/>
<g id="XMLID_28_">
	<path id="XMLID_37_" class="st0" d="M863.5,286.5c0,0.3,0,0.4,0,0.4L863.5,286.5L863.5,286.5z"/>
	<path id="XMLID_36_" class="st0" d="M863.5,286.5c0,0.3,0,0.4,0,0.4L863.5,286.5L863.5,286.5z"/>
</g>
</svg>
