<?xml version="1.0" encoding="utf-8"?>
<!-- Generator: Adobe Illustrator 19.0.0, SVG Export Plug-In . SVG Version: 6.00 Build 0)  -->
<svg version="1.1" id="Layer_1" xmlns="http://www.w3.org/2000/svg" xmlns:xlink="http://www.w3.org/1999/xlink" x="0px" y="0px"
	 viewBox="0 0 512 512" style="enable-background:new 0 0 512 512;" xml:space="preserve">
<style type="text/css">
	.st0{fill:#FFFFFF;}
	.st1{fill:#9F4EA6;}
</style>
<path id="XMLID_9_" class="st0" d="M378,194.3v0.2l-2.7-1.5c0.9-0.3,1.7-0.6,2.6-1C378,192.8,378,193.6,378,194.3z"/>
<path id="XMLID_13_" d="M195.9,326.9L195.9,326.9c-0.1-0.1-0.1-0.1-0.1-0.1C195.8,326.8,195.8,326.8,195.9,326.9z"/>
<path id="XMLID_23_" class="st1" d="M256,16C123.5,16,16,123.5,16,256s107.5,240,240,240s240-107.5,240-240S388.5,16,256,16z
	 M378,192.7C378,192.7,378,192.7,378,192.7c-0.2,0.1-0.3,0.1-0.3,0.2C377.7,192.8,377.8,192.8,378,192.7v2.5c0,0,1.5,42.5-19.1,85.5
	c0,0,0-0.1,0-0.1c0,0,0,0,0,0c0,0,0,0.1-0.1,0.1c-6.5,12.1-13.4,22.7-20.7,32.2c-88.1,115-226.6,49.5-234.1,39.8c0.1,0,0.2,0,0.3,0
	c2.8,0.6,28.3,5.3,61.7-8.9c0,0,0,0,0,0c1.8-0.8,3.6-1.6,5.5-2.5c0,0,0,0,0,0c2.3-1.1,4.6-2.3,6.9-3.5c0.1,0,0.1-0.1,0.2-0.1
	c0.9-0.5,1.8-1,2.8-1.5c0,0,0,0,0,0c1.4-0.8,2.9-1.7,4.3-2.6l0,0c1-0.6,1.9-1.2,2.9-1.8c1-0.6,2-0.7,3-1.4c1.4-1,2.9-1.4,4.3-2.4h0
	c0,0,0-0.5,0-0.5c0,0,0-0.3,0-0.3c-4.4-0.2-42.5-3-57.8-43.2c0,0,20.5,0.3,27.6-1.9c0,0-49.5-12.2-49.5-62c0,0,18,8.6,28.5,7.5
	c0,0-48-28.8-19.3-83.2c0,0,45.9,62.4,128.1,64c-0.9-4.3-1.4-8.8-1.4-13.4c0-34.8,28.2-63,63-63c18.3,0,34.7,7.8,46.2,20.2
	c0.7-0.1,28.6-5,37.8-14.2c0,0-4.3,19.4-26,32.4l0.6,1.5c0,0,31.7-6.9,34.7-9.9C408.3,162,392.4,186.2,378,192.7z"/>
<path id="XMLID_12_" class="st0" d="M338.1,312.2c7.3-9.5,14.2-20.1,20.7-32.2C353.5,291,346.7,301.9,338.1,312.2z"/>
<path id="XMLID_15_" class="st0" d="M358.8,280c0,0,0-0.1,0.1-0.1C358.8,279.9,358.8,280,358.8,280L358.8,280z"/>
<path id="XMLID_16_" class="st0" d="M358.9,280L358.9,280C358.9,280,358.9,279.9,358.9,280C358.9,279.9,358.9,280,358.9,280z"/>
<path id="XMLID_10_" d="M195.9,326.9L195.9,326.9c-0.1-0.1-0.1-0.1-0.1-0.1C195.8,326.8,195.8,326.8,195.9,326.9z"/>
<path id="XMLID_11_" d="M378,192.7L378,192.7C378,192.6,378,192.6,378,192.7z"/>
<path id="XMLID_24_" class="st0" d="M166,343.2c1.8-0.8,3.6-1.6,5.5-2.5C169.6,341.6,167.8,342.4,166,343.2z"/>
<path id="XMLID_25_" class="st0" d="M171.5,340.7c2.3-1.1,4.6-2.3,6.9-3.5C176.1,338.5,173.8,339.6,171.5,340.7z"/>
<path id="XMLID_26_" class="st0" d="M181.4,335.5c1.4-0.8,2.9-1.7,4.3-2.6C184.2,333.9,182.8,334.7,181.4,335.5z"/>
<path id="XMLID_29_" class="st0" d="M358.9,280L358.9,280l-0.1,0h0c0,0,0-0.1,0.1-0.1C358.9,279.9,358.9,279.9,358.9,280
	C358.9,279.9,358.9,280,358.9,280z"/>
</svg>
